<?xml version="1.0" encoding="utf-8"?>
<!-- Generator: Adobe Illustrator 21.0.0, SVG Export Plug-In . SVG Version: 6.00 Build 0)  -->
<svg version="1.1" id="Layer_1" xmlns="http://www.w3.org/2000/svg" xmlns:xlink="http://www.w3.org/1999/xlink" x="0px" y="0px"
	 viewBox="0 0 48 48" style="enable-background:new 0 0 48 48;" xml:space="preserve">
<style type="text/css">
	.st0{fill:#ffffff;}
	.st1{fill-rule:evenodd;clip-rule:evenodd;fill:#ffffff;}
</style>
<g>
	<g>
		<path class="st0" d="M-30.6-137c0,2.9-2.4,5.3-5.3,5.3h-26.3c-2.9,0-5.3-2.4-5.3-5.3v-3.8c0-2.9,2.4-5.3,5.3-5.3h26.3
			c2.9,0,5.3,2.4,5.3,5.3V-137z"/>
	</g>
	<g>
		<path class="st0" d="M-30.6-120.1c0,2.9-2.4,5.3-5.3,5.3h-26.3c-2.9,0-5.3-2.4-5.3-5.3v-3.8c0-2.9,2.4-5.3,5.3-5.3h26.3
			c2.9,0,5.3,2.4,5.3,5.3V-120.1z"/>
	</g>
	<g>
		<path class="st0" d="M-30.6-103.3c0,2.9-2.4,5.3-5.3,5.3h-26.3c-2.9,0-5.3-2.4-5.3-5.3v-3.8c0-2.9,2.4-5.3,5.3-5.3h26.3
			c2.9,0,5.3,2.4,5.3,5.3V-103.3z"/>
	</g>
</g>
<g>
	<g>
		<path class="st0" d="M37.2-143c1.3,0,2.3,1,2.3,2.3v3.8c0,1.3-1,2.3-2.3,2.3H10.8c-1.3,0-2.3-1-2.3-2.3v-3.8c0-1.3,1-2.3,2.3-2.3
			H37.2 M37.2-146H10.8c-2.9,0-5.3,2.4-5.3,5.3v3.8c0,2.9,2.4,5.3,5.3,5.3h26.3c2.9,0,5.3-2.4,5.3-5.3v-3.8
			C42.4-143.6,40.1-146,37.2-146L37.2-146z"/>
	</g>
	<g>
		<path class="st0" d="M37.2-126.1c1.3,0,2.3,1,2.3,2.3v3.8c0,1.3-1,2.3-2.3,2.3H10.8c-1.3,0-2.3-1-2.3-2.3v-3.8
			c0-1.3,1-2.3,2.3-2.3H37.2 M37.2-129.1H10.8c-2.9,0-5.3,2.4-5.3,5.3v3.8c0,2.9,2.4,5.3,5.3,5.3h26.3c2.9,0,5.3-2.4,5.3-5.3v-3.8
			C42.4-126.8,40.1-129.1,37.2-129.1L37.2-129.1z"/>
	</g>
	<g>
		<path class="st0" d="M37.2-109.3c1.3,0,2.3,1,2.3,2.3v3.8c0,1.2-1,2.3-2.3,2.3H10.8c-1.3,0-2.3-1-2.3-2.3v-3.8
			c0-1.2,1-2.3,2.3-2.3H37.2 M37.2-112.3H10.8c-2.9,0-5.3,2.4-5.3,5.3v3.8c0,2.9,2.4,5.3,5.3,5.3h26.3c2.9,0,5.3-2.4,5.3-5.3v-3.8
			C42.4-109.9,40.1-112.3,37.2-112.3L37.2-112.3z"/>
	</g>
</g>
<g>
	<g>
		<path class="st0" d="M108.4-123.1c-6.9,0-12.5,5.6-12.5,12.5c0,6.9,5.6,12.5,12.5,12.5c6.9,0,12.5-5.6,12.5-12.5
			C120.9-117.5,115.3-123.1,108.4-123.1z M116.6-110c0,0.5-0.4,0.9-0.9,0.9h-5.9v5.9c0,0.5-0.4,0.9-0.9,0.9h-1.1
			c-0.5,0-0.9-0.4-0.9-0.9v-5.9h-5.9c-0.5,0-0.9-0.4-0.9-0.9v-1.1c0-0.5,0.4-0.9,0.9-0.9h5.9v-5.9c0-0.5,0.4-0.9,0.9-0.9h1.1
			c0.5,0,0.9,0.4,0.9,0.9v5.9h5.9c0.5,0,0.9,0.4,0.9,0.9V-110z"/>
	</g>
	<g>
		<path class="st0" d="M109.9-137c0,2.9-2.4,5.3-5.3,5.3H78.3c-2.9,0-5.3-2.4-5.3-5.3v-3.8c0-2.9,2.4-5.3,5.3-5.3h26.3
			c2.9,0,5.3,2.4,5.3,5.3V-137z"/>
	</g>
	<g>
		<path class="st0" d="M93.3-110.5c0-0.6,0-1.2,0.1-1.8H78.3c-2.9,0-5.3,2.4-5.3,5.3v3.8c0,2.9,2.4,5.3,5.3,5.3h21.8
			C96-100.7,93.3-105.3,93.3-110.5z"/>
	</g>
	<g>
		<path class="st0" d="M108.4-125.6c0.4,0,0.8,0,1.3,0.1c-0.7-2.1-2.6-3.6-5-3.6H78.3c-2.9,0-5.3,2.4-5.3,5.3v3.8
			c0,2.9,2.4,5.3,5.3,5.3H94C95.8-121.1,101.6-125.6,108.4-125.6z"/>
	</g>
</g>
<g>
	<g>
		<path class="st0" d="M254.4-123.1c-6.9,0-12.5,5.6-12.5,12.5c0,6.9,5.6,12.5,12.5,12.5c6.9,0,12.5-5.6,12.5-12.5
			C266.9-117.5,261.3-123.1,254.4-123.1z M260.6-106.4c0.4,0.4,0.4,0.9,0,1.3l-0.7,0.7c-0.4,0.4-0.9,0.4-1.3,0l-4.2-4.2l-4.2,4.2
			c-0.4,0.4-0.9,0.4-1.3,0l-0.7-0.7c-0.4-0.4-0.4-0.9,0-1.3l4.2-4.2l-4.2-4.2c-0.4-0.4-0.4-0.9,0-1.3l0.7-0.7c0.4-0.4,0.9-0.4,1.3,0
			l4.2,4.2l4.2-4.2c0.4-0.4,0.9-0.4,1.3,0l0.7,0.7c0.4,0.4,0.4,0.9,0,1.3l-4.2,4.2L260.6-106.4z"/>
	</g>
	<g>
		<path class="st0" d="M255.9-137c0,2.9-2.4,5.3-5.3,5.3h-26.3c-2.9,0-5.3-2.4-5.3-5.3v-3.8c0-2.9,2.4-5.3,5.3-5.3h26.3
			c2.9,0,5.3,2.4,5.3,5.3V-137z"/>
	</g>
	<g>
		<path class="st0" d="M239.3-110.5c0-0.6,0-1.2,0.1-1.8h-15.1c-2.9,0-5.3,2.4-5.3,5.3v3.8c0,2.9,2.4,5.3,5.3,5.3h21.8
			C242-100.7,239.3-105.3,239.3-110.5z"/>
	</g>
	<g>
		<path class="st0" d="M254.4-125.6c0.4,0,0.8,0,1.3,0.1c-0.7-2.1-2.6-3.6-5-3.6h-26.3c-2.9,0-5.3,2.4-5.3,5.3v3.8
			c0,2.9,2.4,5.3,5.3,5.3H240C241.8-121.1,247.6-125.6,254.4-125.6z"/>
	</g>
</g>
<g>
	<g>
		<path class="st0" d="M181.4-123.1c-6.9,0-12.5,5.6-12.5,12.5c0,6.9,5.6,12.5,12.5,12.5c6.9,0,12.5-5.6,12.5-12.5
			C193.9-117.5,188.3-123.1,181.4-123.1z M189.6-110c0,0.5-0.4,0.9-0.9,0.9h-14.7c-0.5,0-0.9-0.4-0.9-0.9v-1.1
			c0-0.5,0.4-0.9,0.9-0.9h14.7c0.5,0,0.9,0.4,0.9,0.9V-110z"/>
	</g>
	<g>
		<path class="st0" d="M182.9-137c0,2.9-2.4,5.3-5.3,5.3h-26.3c-2.9,0-5.3-2.4-5.3-5.3v-3.8c0-2.9,2.4-5.3,5.3-5.3h26.3
			c2.9,0,5.3,2.4,5.3,5.3V-137z"/>
	</g>
	<g>
		<path class="st0" d="M166.4-110.5c0-0.6,0-1.2,0.1-1.8h-15.1c-2.9,0-5.3,2.4-5.3,5.3v3.8c0,2.9,2.4,5.3,5.3,5.3h21.8
			C169-100.7,166.4-105.3,166.4-110.5z"/>
	</g>
	<g>
		<path class="st0" d="M181.4-125.6c0.4,0,0.8,0,1.3,0.1c-0.7-2.1-2.6-3.6-5-3.6h-26.3c-2.9,0-5.3,2.4-5.3,5.3v3.8
			c0,2.9,2.4,5.3,5.3,5.3H167C168.8-121.1,174.6-125.6,181.4-125.6z"/>
	</g>
</g>
<g>
	<g>
		<path class="st0" d="M400.4-123.1c-6.9,0-12.5,5.6-12.5,12.5c0,6.9,5.6,12.5,12.5,12.5c6.9,0,12.5-5.6,12.5-12.5
			C412.9-117.5,407.3-123.1,400.4-123.1z M405.8-109.2l-4.8,6.6c-0.3,0.4-0.8,0.4-1.1,0l-4.8-6.6c-0.3-0.4-0.1-0.7,0.4-0.7h3.5v-8
			c0-0.5,0.4-0.9,0.9-0.9h1.1c0.5,0,0.9,0.4,0.9,0.9v8h3.6C405.9-109.9,406.1-109.6,405.8-109.2z"/>
	</g>
	<g>
		<path class="st0" d="M401.9-137c0,2.9-2.4,5.3-5.3,5.3h-26.3c-2.9,0-5.3-2.4-5.3-5.3v-3.8c0-2.9,2.4-5.3,5.3-5.3h26.3
			c2.9,0,5.3,2.4,5.3,5.3V-137z"/>
	</g>
	<g>
		<path class="st0" d="M385.4-110.5c0-0.6,0-1.2,0.1-1.8h-15.1c-2.9,0-5.3,2.4-5.3,5.3v3.8c0,2.9,2.4,5.3,5.3,5.3h21.8
			C388-100.7,385.4-105.3,385.4-110.5z"/>
	</g>
	<g>
		<path class="st0" d="M400.4-125.6c0.4,0,0.8,0,1.3,0.1c-0.7-2.1-2.6-3.6-5-3.6h-26.3c-2.9,0-5.3,2.4-5.3,5.3v3.8
			c0,2.9,2.4,5.3,5.3,5.3H386C387.8-121.1,393.6-125.6,400.4-125.6z"/>
	</g>
</g>
<g>
	<g>
		<path class="st0" d="M473.4-123.1c-6.9,0-12.5,5.6-12.5,12.5c0,6.9,5.6,12.5,12.5,12.5c6.9,0,12.5-5.6,12.5-12.5
			C485.9-117.5,480.3-123.1,473.4-123.1z M478.4-111.2h-3.5v8c0,0.5-0.4,0.9-0.9,0.9h-1.1c-0.5,0-0.9-0.4-0.9-0.9v-8h-3.6
			c-0.5,0-0.7-0.3-0.4-0.7l4.8-6.6c0.3-0.4,0.8-0.4,1.1,0l4.8,6.6C479.1-111.5,478.9-111.2,478.4-111.2z"/>
	</g>
	<g>
		<path class="st0" d="M474.9-137c0,2.9-2.4,5.3-5.3,5.3h-26.3c-2.9,0-5.3-2.4-5.3-5.3v-3.8c0-2.9,2.4-5.3,5.3-5.3h26.3
			c2.9,0,5.3,2.4,5.3,5.3V-137z"/>
	</g>
	<g>
		<path class="st0" d="M458.3-110.5c0-0.6,0-1.2,0.1-1.8h-15.1c-2.9,0-5.3,2.4-5.3,5.3v3.8c0,2.9,2.4,5.3,5.3,5.3h21.8
			C461-100.7,458.3-105.3,458.3-110.5z"/>
	</g>
	<g>
		<path class="st0" d="M473.4-125.6c0.4,0,0.8,0,1.3,0.1c-0.7-2.1-2.6-3.6-5-3.6h-26.3c-2.9,0-5.3,2.4-5.3,5.3v3.8
			c0,2.9,2.4,5.3,5.3,5.3H459C460.8-121.1,466.6-125.6,473.4-125.6z"/>
	</g>
</g>
<g>
	<g>
		<path class="st0" d="M327.4-123.1c-6.9,0-12.5,5.6-12.5,12.5c0,6.9,5.6,12.5,12.5,12.5c6.9,0,12.5-5.6,12.5-12.5
			C339.9-117.5,334.3-123.1,327.4-123.1z M334.9-114.2l-8.9,8.9c-0.4,0.4-0.8,0.7-0.9,0.7c-0.1,0-0.5-0.3-0.9-0.7l-4.4-4.4
			c-0.4-0.4-0.4-1,0-1.4l0.6-0.6c0.4-0.4,1-0.4,1.4,0l2.6,2.6c0.4,0.4,1,0.4,1.4,0l7-7c0.4-0.4,1-0.4,1.4,0l0.6,0.6
			C335.3-115.2,335.3-114.6,334.9-114.2z"/>
	</g>
	<g>
		<path class="st0" d="M328.9-137c0,2.9-2.4,5.3-5.3,5.3h-26.3c-2.9,0-5.3-2.4-5.3-5.3v-3.8c0-2.9,2.4-5.3,5.3-5.3h26.3
			c2.9,0,5.3,2.4,5.3,5.3V-137z"/>
	</g>
	<g>
		<path class="st0" d="M312.3-110.5c0-0.6,0-1.2,0.1-1.8h-15.1c-2.9,0-5.3,2.4-5.3,5.3v3.8c0,2.9,2.4,5.3,5.3,5.3h21.8
			C315-100.7,312.3-105.3,312.3-110.5z"/>
	</g>
	<g>
		<path class="st0" d="M327.4-125.6c0.4,0,0.8,0,1.3,0.1c-0.7-2.1-2.6-3.6-5-3.6h-26.3c-2.9,0-5.3,2.4-5.3,5.3v3.8
			c0,2.9,2.4,5.3,5.3,5.3H313C314.8-121.1,320.6-125.6,327.4-125.6z"/>
	</g>
</g>
<g>
	<g>
		<path class="st0" d="M619.4-123.1c-6.9,0-12.5,5.6-12.5,12.5c0,6.9,5.6,12.5,12.5,12.5c6.9,0,12.5-5.6,12.5-12.5
			C631.9-117.5,626.3-123.1,619.4-123.1z M624-105.4h-9.2c-2,0-3.6-1.5-3.6-3.4c0-1.4,1-2.7,2.4-3.2c0.2-2.1,2-3.8,4.1-3.8
			c1.3,0,2.5,0.6,3.2,1.6c0.4-0.3,1-0.4,1.5-0.4c1.6,0,2.8,1.2,3,2.7c1.3,0.5,2.3,1.7,2.3,3.1C627.6-106.9,626-105.4,624-105.4z"/>
	</g>
	<g>
		<path class="st0" d="M620.9-137c0,2.9-2.4,5.3-5.3,5.3h-26.3c-2.9,0-5.3-2.4-5.3-5.3v-3.8c0-2.9,2.4-5.3,5.3-5.3h26.3
			c2.9,0,5.3,2.4,5.3,5.3V-137z"/>
	</g>
	<g>
		<path class="st0" d="M619.4-125.6c0.4,0,0.8,0,1.3,0.1c-0.7-2.1-2.6-3.6-5-3.6h-26.3c-2.9,0-5.3,2.4-5.3,5.3v3.8
			c0,2.9,2.4,5.3,5.3,5.3H605C606.8-121.1,612.6-125.6,619.4-125.6z"/>
	</g>
	<g>
		<path class="st0" d="M604.4-110.5c0-0.6,0-1.2,0.1-1.8h-15.1c-2.9,0-5.3,2.4-5.3,5.3v3.8c0,2.9,2.4,5.3,5.3,5.3h21.8
			C607-100.7,604.4-105.3,604.4-110.5z"/>
	</g>
</g>
<g>
	<g>
		<g>
			<path class="st0" d="M545-115.7c-1,0-1.9,0.4-2.6,1.1c-1.5,1.5-1.5,3.8,0,5.3c0.7,0.7,1.6,1.1,2.6,1.1c1,0,1.9-0.4,2.6-1.1
				c1.5-1.5,1.5-3.8,0-5.3C546.9-115.3,546-115.7,545-115.7z"/>
		</g>
		<g>
			<path class="st0" d="M546.4-123.1c-6.9,0-12.5,5.6-12.5,12.5c0,6.9,5.6,12.5,12.5,12.5c6.9,0,12.5-5.6,12.5-12.5
				C558.9-117.5,553.3-123.1,546.4-123.1z M554.3-103.2l-0.6,0.6c-0.4,0.4-1.1,0.4-1.5,0l-3.6-3.6c-1.1,0.7-2.4,1.1-3.7,1.1
				c-1.7,0-3.5-0.7-4.8-2c-2.7-2.7-2.7-7,0-9.6c1.3-1.3,3.1-2,4.8-2c1.7,0,3.5,0.7,4.8,2c2.3,2.3,2.6,5.8,0.9,8.5l3.6,3.6
				C554.7-104.3,554.7-103.6,554.3-103.2z"/>
		</g>
	</g>
	<g>
		<path class="st0" d="M547.9-137c0,2.9-2.4,5.3-5.3,5.3h-26.3c-2.9,0-5.3-2.4-5.3-5.3v-3.8c0-2.9,2.4-5.3,5.3-5.3h26.3
			c2.9,0,5.3,2.4,5.3,5.3V-137z"/>
	</g>
	<g>
		<path class="st0" d="M531.3-110.5c0-0.6,0-1.2,0.1-1.8h-15.1c-2.9,0-5.3,2.4-5.3,5.3v3.8c0,2.9,2.4,5.3,5.3,5.3h21.8
			C534-100.7,531.3-105.3,531.3-110.5z"/>
	</g>
	<g>
		<path class="st0" d="M546.4-125.6c0.4,0,0.8,0,1.3,0.1c-0.7-2.1-2.6-3.6-5-3.6h-26.3c-2.9,0-5.3,2.4-5.3,5.3v3.8
			c0,2.9,2.4,5.3,5.3,5.3H532C533.8-121.1,539.6-125.6,546.4-125.6z"/>
	</g>
</g>
<g>
	<g>
		<g>
			<path class="st0" d="M-37.6-44.2c-1.5,0-2.8,1.3-2.8,2.8v2.8h5.6v-2.8C-34.8-42.9-36.1-44.2-37.6-44.2z"/>
		</g>
		<g>
			<path class="st0" d="M-37.6-36.3c-0.8,0-1.4,0.6-1.4,1.4c0,0.5,0.2,0.9,0.6,1.1v1.4c0,0.4,0.3,0.8,0.8,0.8c0.4,0,0.8-0.3,0.8-0.8
				v-1.4c0.4-0.2,0.6-0.7,0.6-1.1C-36.2-35.7-36.8-36.3-37.6-36.3z"/>
		</g>
		<g>
			<path class="st0" d="M-37.6-50.1c-6.9,0-12.5,5.6-12.5,12.5c0,6.9,5.6,12.5,12.5,12.5c6.9,0,12.5-5.6,12.5-12.5
				C-25.1-44.5-30.7-50.1-37.6-50.1z M-32.2-30.6c0,0.7-0.6,1.3-1.3,1.3h-8.2c-0.7,0-1.3-0.6-1.3-1.3v-6.6c0-0.6,0.4-1.1,1-1.3v-2.9
				c0-2.4,2-4.4,4.4-4.4c2.4,0,4.4,2,4.4,4.4v2.9c0.6,0.1,1,0.6,1,1.3V-30.6z"/>
		</g>
	</g>
	<g>
		<path class="st0" d="M-36.1-64c0,2.9-2.4,5.3-5.3,5.3h-26.3c-2.9,0-5.3-2.4-5.3-5.3v-3.8c0-2.9,2.4-5.3,5.3-5.3h26.3
			c2.9,0,5.3,2.4,5.3,5.3V-64z"/>
	</g>
	<g>
		<path class="st0" d="M-52.6-37.5c0-0.6,0-1.2,0.1-1.8h-15.1c-2.9,0-5.3,2.4-5.3,5.3v3.8c0,2.9,2.4,5.3,5.3,5.3h21.8
			C-50-27.7-52.6-32.3-52.6-37.5z"/>
	</g>
	<g>
		<path class="st0" d="M-37.6-52.6c0.4,0,0.8,0,1.3,0.1c-0.7-2.1-2.6-3.6-5-3.6h-26.3c-2.9,0-5.3,2.4-5.3,5.3v3.8
			c0,2.9,2.4,5.3,5.3,5.3H-52C-50.2-48.1-44.4-52.6-37.6-52.6z"/>
	</g>
</g>
<g>
	<g>
		<g>
			<circle class="st0" cx="35.4" cy="-37.5" r="1.8"/>
		</g>
		<g>
			<path class="st0" d="M35.4-50.1c-6.9,0-12.5,5.6-12.5,12.5c0,6.9,5.6,12.5,12.5,12.5c6.9,0,12.5-5.6,12.5-12.5
				C47.9-44.5,42.3-50.1,35.4-50.1z M43.6-36.9c0,0.3-0.3,0.6-0.6,0.6l-2.2,0.2c-0.1,0.5-0.3,1-0.6,1.5l1.4,1.6
				c0.2,0.2,0.2,0.6,0,0.8l-0.9,0.9c-0.2,0.2-0.6,0.2-0.8,0l-1.6-1.4c-0.5,0.3-1,0.5-1.5,0.6l-0.2,2.1c0,0.3-0.3,0.6-0.6,0.6h-1.2
				c-0.3,0-0.6-0.3-0.6-0.6L34-32c-0.5-0.1-1-0.4-1.5-0.6l-1.6,1.4c-0.2,0.2-0.6,0.2-0.8,0l-0.9-0.9c-0.2-0.2-0.2-0.6,0-0.8l1.4-1.6
				c-0.3-0.5-0.5-1-0.6-1.5l-2.1-0.2c-0.3,0-0.6-0.3-0.6-0.6v-1.2c0-0.3,0.3-0.6,0.6-0.6l2.2-0.2c0.1-0.5,0.3-1,0.6-1.5l-1.4-1.7
				c-0.2-0.2-0.2-0.6,0-0.8l0.9-0.9c0.2-0.2,0.6-0.2,0.8,0l1.7,1.4c0.4-0.3,0.9-0.5,1.4-0.6l0.2-2.2c0-0.3,0.3-0.6,0.6-0.6H36
				c0.3,0,0.6,0.3,0.6,0.6l0.2,2.2c0.5,0.1,1,0.3,1.4,0.6l1.7-1.4c0.2-0.2,0.6-0.2,0.8,0l0.9,0.9c0.2,0.2,0.2,0.6,0,0.8l-1.4,1.7
				c0.3,0.4,0.5,0.9,0.6,1.5l2.2,0.2c0.3,0,0.6,0.3,0.6,0.6V-36.9z"/>
		</g>
	</g>
	<g>
		<path class="st0" d="M36.9-64c0,2.9-2.4,5.3-5.3,5.3H5.3c-2.9,0-5.3-2.4-5.3-5.3v-3.8c0-2.9,2.4-5.3,5.3-5.3h26.3
			c2.9,0,5.3,2.4,5.3,5.3V-64z"/>
	</g>
	<g>
		<path class="st0" d="M20.3-37.5c0-0.6,0-1.2,0.1-1.8H5.3c-2.9,0-5.3,2.4-5.3,5.3v3.8c0,2.9,2.4,5.3,5.3,5.3h21.8
			C23-27.7,20.3-32.3,20.3-37.5z"/>
	</g>
	<g>
		<path class="st0" d="M35.4-52.6c0.4,0,0.8,0,1.3,0.1c-0.7-2.1-2.6-3.6-5-3.6H5.3c-2.9,0-5.3,2.4-5.3,5.3v3.8
			c0,2.9,2.4,5.3,5.3,5.3H21C22.8-48.1,28.6-52.6,35.4-52.6z"/>
	</g>
</g>
<g>
	<g>
		<path class="st0" d="M120.4-30.9l-12.7-12.7c2-3.1,3.1-6.7,3.1-10.4c0-5.1-2-9.8-5.5-13.4C101.8-71,97-73,91.9-73h0
			C81.5-73,73-64.5,73-54.1c0,10.4,8.5,18.9,18.9,18.9c3.8,0,7.4-1.1,10.4-3.1l12.7,12.7c0.7,0.7,1.9,0.7,2.7,0l2.7-2.7
			C121.2-29,121.2-30.2,120.4-30.9z M78.1-54.1c0-7.7,6.2-13.9,13.9-13.9c3.7,0,7.2,1.4,9.8,4.1c2.6,2.6,4.1,6.1,4.1,9.8
			c0,3.7-1.4,7.2-4.1,9.8c-2.6,2.6-6.1,4.1-9.8,4.1C84.3-40.2,78.1-46.4,78.1-54.1z"/>
	</g>
</g>
<g>
	<g>
		<g>
			<path class="st0" d="M166.5-45.7c0,0.3-0.2,0.5-0.5,0.5h-2.3c-0.3,0-0.5-0.2-0.5-0.5v-17c0-0.3,0.2-0.5,0.5-0.5h2.3
				c0.3,0,0.5,0.2,0.5,0.5V-45.7z"/>
		</g>
		<g>
			<path class="st0" d="M156.4-52.5c-0.3,0-0.5-0.2-0.5-0.5v-2.3c0-0.3,0.2-0.5,0.5-0.5h17c0.3,0,0.5,0.2,0.5,0.5v2.3
				c0,0.3-0.2,0.5-0.5,0.5H156.4z"/>
		</g>
	</g>
	<g>
		<path class="st0" d="M193.4-30.9l-12.7-12.7c2-3.1,3.1-6.7,3.1-10.4c0-5.1-2-9.8-5.5-13.4C174.8-71,170-73,164.9-73h0
			c-10.4,0-18.9,8.5-18.9,18.9c0,10.4,8.5,18.9,18.9,18.9c3.8,0,7.4-1.1,10.4-3.1l12.7,12.7c0.7,0.7,1.9,0.7,2.7,0l2.7-2.7
			C194.2-29,194.2-30.2,193.4-30.9z M151.1-54.1c0-7.7,6.2-13.9,13.9-13.9c3.7,0,7.2,1.4,9.8,4.1c2.6,2.6,4.1,6.1,4.1,9.8
			c0,3.7-1.4,7.2-4.1,9.8c-2.6,2.6-6.1,4.1-9.8,4.1C157.3-40.2,151.1-46.4,151.1-54.1z"/>
	</g>
</g>
<g>
	<g>
		<path class="st0" d="M229.4-52.5c-0.3,0-0.5-0.2-0.5-0.5v-2.3c0-0.3,0.2-0.5,0.5-0.5h17c0.3,0,0.5,0.2,0.5,0.5v2.3
			c0,0.3-0.2,0.5-0.5,0.5H229.4z"/>
	</g>
	<g>
		<path class="st0" d="M266.4-30.9l-12.7-12.7c2-3.1,3.1-6.7,3.1-10.4c0-5.1-2-9.8-5.5-13.4C247.8-71,243-73,237.9-73h0
			c-10.4,0-18.9,8.5-18.9,18.9c0,10.4,8.5,18.9,18.9,18.9c3.8,0,7.4-1.1,10.4-3.1l12.7,12.7c0.7,0.7,1.9,0.7,2.7,0l2.7-2.7
			C267.2-29,267.2-30.2,266.4-30.9z M224.1-54.1c0-7.7,6.2-13.9,13.9-13.9c3.7,0,7.2,1.4,9.8,4.1c2.6,2.6,4.1,6.1,4.1,9.8
			c0,3.7-1.4,7.2-4.1,9.8c-2.6,2.6-6.1,4.1-9.8,4.1C230.3-40.2,224.1-46.4,224.1-54.1z"/>
	</g>
</g>
<g>
	<g>
		<g>
			<g>
				<path class="st0" d="M306-47c-0.2,0.2-0.5,0.2-0.7,0l-1.6-1.6c-0.2-0.2-0.2-0.5,0-0.7l12-12c0.2-0.2,0.5-0.2,0.7,0l1.6,1.6
					c0.2,0.2,0.2,0.5,0,0.7L306-47z"/>
			</g>
		</g>
		<g>
			<g>
				<path class="st0" d="M303.7-59c-0.2-0.2-0.2-0.5,0-0.7l1.6-1.6c0.2-0.2,0.5-0.2,0.7,0l12,12c0.2,0.2,0.2,0.5,0,0.7l-1.6,1.6
					c-0.2,0.2-0.5,0.2-0.7,0L303.7-59z"/>
			</g>
		</g>
	</g>
	<g>
		<path class="st0" d="M339.4-30.9l-12.7-12.7c2-3.1,3.1-6.7,3.1-10.4c0-5.1-2-9.8-5.5-13.4C320.8-71,316-73,310.9-73h0
			c-10.4,0-18.9,8.5-18.9,18.9c0,10.4,8.5,18.9,18.9,18.9c3.8,0,7.4-1.1,10.4-3.1l12.7,12.7c0.7,0.7,1.9,0.7,2.7,0l2.7-2.7
			C340.2-29,340.2-30.2,339.4-30.9z M297.1-54.1c0-7.7,6.2-13.9,13.9-13.9c3.7,0,7.2,1.4,9.8,4.1c2.6,2.6,4.1,6.1,4.1,9.8
			c0,3.7-1.4,7.2-4.1,9.8c-2.6,2.6-6.1,4.1-9.8,4.1C303.3-40.2,297.1-46.4,297.1-54.1z"/>
	</g>
</g>
<g>
	<g>
		<path class="st0" d="M412.4-30.9l-12.7-12.7c2-3.1,3.1-6.7,3.1-10.4c0-5.1-2-9.8-5.5-13.4C393.8-71,389-73,383.9-73h0
			c-10.4,0-18.9,8.5-18.9,18.9c0,10.4,8.5,18.9,18.9,18.9c3.8,0,7.4-1.1,10.4-3.1l12.7,12.7c0.7,0.7,1.9,0.7,2.7,0l2.7-2.7
			C413.2-29,413.2-30.2,412.4-30.9z M370.1-54.1c0-7.7,6.2-13.9,13.9-13.9c3.7,0,7.2,1.4,9.8,4.1c2.6,2.6,4.1,6.1,4.1,9.8
			c0,3.7-1.4,7.2-4.1,9.8c-2.6,2.6-6.1,4.1-9.8,4.1C376.3-40.2,370.1-46.4,370.1-54.1z"/>
	</g>
	<g>
		<path class="st0" d="M394.5-54.9c0,0-0.6-0.7-1.3-1.3c-2.5-2.2-5.8-3.5-9.4-3.5c-3.6,0-6.9,1.3-9.5,3.5c-0.7,0.6-1.3,1.3-1.3,1.3
			c-0.4,0.4-0.4,1.2,0,1.6c0,0,0.4,0.5,1.1,1.1c2.6,2.3,5.9,3.7,9.7,3.7c3.7,0,7-1.4,9.5-3.6c0.7-0.6,1.2-1.2,1.2-1.2
			C394.9-53.8,394.9-54.5,394.5-54.9z M383.8-50.8c-1.8,0-3.3-1.5-3.3-3.3s1.5-3.3,3.3-3.3c1.8,0,3.3,1.5,3.3,3.3
			S385.6-50.8,383.8-50.8z"/>
	</g>
</g>
<g>
	<g>
		<g>
			<path class="st0" d="M485.4-30.9l-12.7-12.7c2-3.1,3.1-6.7,3.1-10.4c0-5.1-2-9.8-5.5-13.4C466.8-71,462-73,456.9-73h0
				c-10.4,0-18.9,8.5-18.9,18.9c0,10.4,8.5,18.9,18.9,18.9c3.8,0,7.4-1.1,10.4-3.1l12.7,12.7c0.7,0.7,1.9,0.7,2.7,0l2.7-2.7
				C486.2-29,486.2-30.2,485.4-30.9z M443.1-54.1c0-7.7,6.2-13.9,13.9-13.9c3.7,0,7.2,1.4,9.8,4.1c2.6,2.6,4.1,6.1,4.1,9.8
				c0,3.7-1.4,7.2-4.1,9.8c-2.6,2.6-6.1,4.1-9.8,4.1C449.3-40.2,443.1-46.4,443.1-54.1z"/>
		</g>
		<g>
			<circle class="st0" cx="456.9" cy="-54.1" r="1.3"/>
		</g>
	</g>
	<g>
		<g>
			<path class="st0" d="M466-59.8c0,0.6-0.5,1.1-1.1,1.1H449c-0.6,0-1.1-0.5-1.1-1.1v-1.6c0-0.6,0.5-1.1,1.1-1.1h15.9
				c0.6,0,1.1,0.5,1.1,1.1V-59.8z"/>
		</g>
		<g>
			<path class="st0" d="M466-53.4c0,0.6-0.5,1.1-1.1,1.1H449c-0.6,0-1.1-0.5-1.1-1.1V-55c0-0.6,0.5-1.1,1.1-1.1h15.9
				c0.6,0,1.1,0.5,1.1,1.1V-53.4z"/>
		</g>
		<g>
			<path class="st0" d="M457.1-46.9c0,0.6-0.5,1.1-1.1,1.1h-7c-0.6,0-1.1-0.5-1.1-1.1v-1.6c0-0.6,0.5-1.1,1.1-1.1h7
				c0.6,0,1.1,0.5,1.1,1.1V-46.9z"/>
		</g>
	</g>
</g>
<g>
	<g>
		<path class="st0" d="M558.4-30.9l-12.7-12.7c2-3.1,3.1-6.7,3.1-10.4c0-5.1-2-9.8-5.5-13.4C539.8-71,535-73,529.9-73h0
			c-10.4,0-18.9,8.5-18.9,18.9c0,10.4,8.5,18.9,18.9,18.9c3.8,0,7.4-1.1,10.4-3.1l12.7,12.7c0.7,0.7,1.9,0.7,2.7,0l2.7-2.7
			C559.2-29,559.2-30.2,558.4-30.9z M516.1-54.1c0-7.7,6.2-13.9,13.9-13.9c3.7,0,7.2,1.4,9.8,4.1c2.6,2.6,4.1,6.1,4.1,9.8
			c0,3.7-1.4,7.2-4.1,9.8c-2.6,2.6-6.1,4.1-9.8,4.1C522.3-40.2,516.1-46.4,516.1-54.1z"/>
	</g>
	<g>
		<path class="st0" d="M530-66.5c-6.9,0-12.5,5.6-12.5,12.5c0,6.9,5.6,12.5,12.5,12.5c6.9,0,12.5-5.6,12.5-12.5
			C542.5-60.9,536.9-66.5,530-66.5z M538.5-52.3h-6.8v6.8c0,0.3-0.2,0.5-0.5,0.5h-2.3c-0.3,0-0.5-0.2-0.5-0.5v-6.8h-6.8
			c-0.3,0-0.5-0.2-0.5-0.5v-2.3c0-0.3,0.2-0.5,0.5-0.5h6.8v-6.8c0-0.3,0.2-0.5,0.5-0.5h2.3c0.3,0,0.5,0.2,0.5,0.5v6.8h6.8
			c0.3,0,0.5,0.2,0.5,0.5v2.3C539-52.6,538.7-52.3,538.5-52.3z"/>
	</g>
</g>
<g>
	<g>
		<path class="st0" d="M631.4-30.9l-12.7-12.7c2-3.1,3.1-6.7,3.1-10.4c0-5.1-2-9.8-5.5-13.4C612.8-71,608-73,602.9-73h0
			c-10.4,0-18.9,8.5-18.9,18.9c0,10.4,8.5,18.9,18.9,18.9c3.8,0,7.4-1.1,10.4-3.1l12.7,12.7c0.7,0.7,1.9,0.7,2.7,0l2.7-2.7
			C632.2-29,632.2-30.2,631.4-30.9z M589.1-54.1c0-7.7,6.2-13.9,13.9-13.9c3.7,0,7.2,1.4,9.8,4.1c2.6,2.6,4.1,6.1,4.1,9.8
			c0,3.7-1.4,7.2-4.1,9.8c-2.6,2.6-6.1,4.1-9.8,4.1C595.3-40.2,589.1-46.4,589.1-54.1z"/>
	</g>
	<g>
		<path class="st0" d="M603-66.7c-6.9,0-12.5,5.6-12.5,12.5c0,6.9,5.6,12.5,12.5,12.5c6.9,0,12.5-5.6,12.5-12.5
			C615.5-61.1,609.9-66.7,603-66.7z M611.5-52.5h-17c-0.3,0-0.5-0.2-0.5-0.5v-2.3c0-0.3,0.2-0.5,0.5-0.5h17c0.3,0,0.5,0.2,0.5,0.5
			v2.3C612-52.7,611.7-52.5,611.5-52.5z"/>
	</g>
</g>
<g>
	<g>
		<g>
			<path class="st0" d="M-54.9,17.6c-0.3,0-0.5,0.2-0.5,0.5v11.9c0,0.3,0.2,0.5,0.5,0.5h11.9c0.3,0,0.5-0.2,0.5-0.5V18.1
				c0-0.3-0.2-0.5-0.5-0.5H-54.9z"/>
		</g>
	</g>
	<g>
		<g>
			<path class="st0" d="M-38.2,34.3c-0.3,0-0.5,0.2-0.5,0.5v12.7c0,0.3,0.2,0.5,0.5,0.5h12.7c0.3,0,0.5-0.2,0.5-0.5V34.8
				c0-0.3-0.2-0.5-0.5-0.5H-38.2z"/>
		</g>
	</g>
	<g>
		<g>
			<path class="st0" d="M-43.1,48c0.3,0,0.5-0.2,0.5-0.5V34.8c0-0.3-0.2-0.5-0.5-0.5h-11.9c-0.3,0-0.5,0.2-0.5,0.5v12.7
				c0,0.3,0.2,0.5,0.5,0.5H-43.1z"/>
		</g>
	</g>
	<g>
		<g>
			<path class="st0" d="M-38.7,13.2c0,0.3,0.2,0.5,0.5,0.5h12.7c0.3,0,0.5-0.2,0.5-0.5V0.5c0-0.3-0.2-0.5-0.5-0.5h-12.7
				c-0.3,0-0.5,0.2-0.5,0.5V13.2z"/>
		</g>
	</g>
	<g>
		<g>
			<path class="st0" d="M-73,29.9c0,0.3,0.2,0.5,0.5,0.5h12.7c0.3,0,0.5-0.2,0.5-0.5V18.1c0-0.3-0.2-0.5-0.5-0.5h-12.7
				c-0.3,0-0.5,0.2-0.5,0.5V29.9z"/>
		</g>
	</g>
	<g>
		<g>
			<path class="st0" d="M-59.8,13.7c0.3,0,0.5-0.2,0.5-0.5V0.5c0-0.3-0.2-0.5-0.5-0.5h-12.7C-72.8,0-73,0.2-73,0.5v12.7
				c0,0.3,0.2,0.5,0.5,0.5H-59.8z"/>
		</g>
	</g>
	<g>
		<g>
			<path class="st0" d="M-59.3,34.8c0-0.3-0.2-0.5-0.5-0.5h-12.7c-0.3,0-0.5,0.2-0.5,0.5v12.7c0,0.3,0.2,0.5,0.5,0.5h12.7
				c0.3,0,0.5-0.2,0.5-0.5V34.8z"/>
		</g>
	</g>
	<g>
		<g>
			<path class="st0" d="M-25,18.1c0-0.3-0.2-0.5-0.5-0.5h-12.7c-0.3,0-0.5,0.2-0.5,0.5v11.9c0,0.3,0.2,0.5,0.5,0.5h12.7
				c0.3,0,0.5-0.2,0.5-0.5V18.1z"/>
		</g>
	</g>
	<g>
		<g>
			<path class="st0" d="M-54.9,0c-0.3,0-0.5,0.2-0.5,0.5v12.7c0,0.3,0.2,0.5,0.5,0.5h11.9c0.3,0,0.5-0.2,0.5-0.5V0.5
				c0-0.3-0.2-0.5-0.5-0.5H-54.9z"/>
		</g>
	</g>
</g>
<g>
	<g>
		<g>
			<path class="st0" d="M146,29.9c0,0.3,0.2,0.5,0.5,0.5h12.7c0.3,0,0.5-0.2,0.5-0.5V18.1c0-0.3-0.2-0.5-0.5-0.5h-12.7
				c-0.3,0-0.5,0.2-0.5,0.5V29.9z"/>
		</g>
	</g>
	<g>
		<g>
			<path class="st0" d="M194,18.1c0-0.3-0.2-0.5-0.5-0.5h-29.4c-0.3,0-0.5,0.2-0.5,0.5v11.9c0,0.3,0.2,0.5,0.5,0.5h29.4
				c0.3,0,0.5-0.2,0.5-0.5V18.1z"/>
		</g>
	</g>
	<g>
		<g>
			<path class="st0" d="M163.6,13.2c0,0.3,0.2,0.5,0.5,0.5h29.4c0.3,0,0.5-0.2,0.5-0.5V0.5c0-0.3-0.2-0.5-0.5-0.5h-29.4
				c-0.3,0-0.5,0.2-0.5,0.5V13.2z"/>
		</g>
	</g>
	<g>
		<g>
			<path class="st0" d="M164.1,34.3c-0.3,0-0.5,0.2-0.5,0.5v12.7c0,0.3,0.2,0.5,0.5,0.5h29.4c0.3,0,0.5-0.2,0.5-0.5V34.8
				c0-0.3-0.2-0.5-0.5-0.5H164.1z"/>
		</g>
	</g>
	<g>
		<g>
			<path class="st0" d="M159.7,34.8c0-0.3-0.2-0.5-0.5-0.5h-12.7c-0.3,0-0.5,0.2-0.5,0.5v12.7c0,0.3,0.2,0.5,0.5,0.5h12.7
				c0.3,0,0.5-0.2,0.5-0.5V34.8z"/>
		</g>
	</g>
	<g>
		<g>
			<path class="st0" d="M159.2,13.7c0.3,0,0.5-0.2,0.5-0.5V0.5c0-0.3-0.2-0.5-0.5-0.5h-12.7c-0.3,0-0.5,0.2-0.5,0.5v12.7
				c0,0.3,0.2,0.5,0.5,0.5H159.2z"/>
		</g>
	</g>
</g>
<g>
	<g>
		<g>
			<path class="st0" d="M267,18.1c0-0.3-0.2-0.5-0.5-0.5h-12.7c-0.3,0-0.5,0.2-0.5,0.5v11.9c0,0.3,0.2,0.5,0.5,0.5h12.7
				c0.3,0,0.5-0.2,0.5-0.5V18.1z"/>
		</g>
	</g>
	<g>
		<g>
			<path class="st0" d="M219,29.9c0,0.3,0.2,0.5,0.5,0.5h29.4c0.3,0,0.5-0.2,0.5-0.5V18.1c0-0.3-0.2-0.5-0.5-0.5h-29.4
				c-0.3,0-0.5,0.2-0.5,0.5V29.9z"/>
		</g>
	</g>
	<g>
		<g>
			<path class="st0" d="M249.4,34.8c0-0.3-0.2-0.5-0.5-0.5h-29.4c-0.3,0-0.5,0.2-0.5,0.5v12.7c0,0.3,0.2,0.5,0.5,0.5h29.4
				c0.3,0,0.5-0.2,0.5-0.5V34.8z"/>
		</g>
	</g>
	<g>
		<g>
			<path class="st0" d="M248.9,13.7c0.3,0,0.5-0.2,0.5-0.5V0.5c0-0.3-0.2-0.5-0.5-0.5h-29.4c-0.3,0-0.5,0.2-0.5,0.5v12.7
				c0,0.3,0.2,0.5,0.5,0.5H248.9z"/>
		</g>
	</g>
	<g>
		<g>
			<path class="st0" d="M253.3,13.2c0,0.3,0.2,0.5,0.5,0.5h12.7c0.3,0,0.5-0.2,0.5-0.5V0.5c0-0.3-0.2-0.5-0.5-0.5h-12.7
				c-0.3,0-0.5,0.2-0.5,0.5V13.2z"/>
		</g>
	</g>
	<g>
		<g>
			<path class="st0" d="M253.8,34.3c-0.3,0-0.5,0.2-0.5,0.5v12.7c0,0.3,0.2,0.5,0.5,0.5h12.7c0.3,0,0.5-0.2,0.5-0.5V34.8
				c0-0.3-0.2-0.5-0.5-0.5H253.8z"/>
		</g>
	</g>
</g>
<g>
	<g>
		<g>
			<path class="st0" d="M120.5,13.7c0.3,0,0.5-0.2,0.5-0.5V0.5c0-0.3-0.2-0.5-0.5-0.5h-47C73.2,0,73,0.2,73,0.5v12.7
				c0,0.3,0.2,0.5,0.5,0.5H120.5z"/>
		</g>
	</g>
	<g>
		<g>
			<path class="st0" d="M73.5,34.3c-0.3,0-0.5,0.2-0.5,0.5v12.7c0,0.3,0.2,0.5,0.5,0.5h47c0.3,0,0.5-0.2,0.5-0.5V34.8
				c0-0.3-0.2-0.5-0.5-0.5H73.5z"/>
		</g>
	</g>
	<g>
		<g>
			<path class="st0" d="M120.5,30.4c0.3,0,0.5-0.2,0.5-0.5V18.1c0-0.3-0.2-0.5-0.5-0.5h-47c-0.3,0-0.5,0.2-0.5,0.5v11.9
				c0,0.3,0.2,0.5,0.5,0.5H120.5z"/>
		</g>
	</g>
</g>
<g>
	<g>
		<g>
			<path class="st0" d="M25.9,21.6c0,0.3,0.2,0.5,0.5,0.5h21.1c0.3,0,0.5-0.2,0.5-0.5V0.5C48,0.2,47.8,0,47.5,0H26.4
				c-0.3,0-0.5,0.2-0.5,0.5V21.6z"/>
		</g>
	</g>
	<g>
		<g>
			<path class="st0" d="M21.6,22.1c0.3,0,0.5-0.2,0.5-0.5V0.5c0-0.3-0.2-0.5-0.5-0.5H0.5C0.2,0,0,0.2,0,0.5v21.1
				c0,0.3,0.2,0.5,0.5,0.5H21.6z"/>
		</g>
	</g>
	<g>
		<g>
			<path class="st0" d="M22.1,26.4c0-0.3-0.2-0.5-0.5-0.5H0.5c-0.3,0-0.5,0.2-0.5,0.5v21.1C0,47.8,0.2,48,0.5,48h21.1
				c0.3,0,0.5-0.2,0.5-0.5V26.4z"/>
		</g>
	</g>
	<g>
		<g>
			<path class="st0" d="M26.4,25.9c-0.3,0-0.5,0.2-0.5,0.5v21.1c0,0.3,0.2,0.5,0.5,0.5h21.1c0.3,0,0.5-0.2,0.5-0.5V26.4
				c0-0.3-0.2-0.5-0.5-0.5H26.4z"/>
		</g>
	</g>
</g>
<g>
	<g>
		<path class="st0" d="M336,4v39.5c0,0.3-0.2,0.5-0.5,0.5h-39c-0.3,0-0.5-0.2-0.5-0.5v-39c0-0.3,0.2-0.5,0.5-0.5H336 M340,0.5
			c0-0.3-0.2-0.5-0.5-0.5h-47c-0.3,0-0.5,0.2-0.5,0.5v47c0,0.3,0.2,0.5,0.5,0.5h47c0.3,0,0.5-0.2,0.5-0.5V0.5z"/>
	</g>
	<g>
		<rect x="303" y="1.4" class="st0" width="4" height="45.2"/>
	</g>
</g>
<g>
	<g>
		<path class="st0" d="M409,4v39.5c0,0.3-0.2,0.5-0.5,0.5h-39c-0.3,0-0.5-0.2-0.5-0.5v-39c0-0.3,0.2-0.5,0.5-0.5H409 M413,0.5
			c0-0.3-0.2-0.5-0.5-0.5h-47c-0.3,0-0.5,0.2-0.5,0.5v47c0,0.3,0.2,0.5,0.5,0.5h47c0.3,0,0.5-0.2,0.5-0.5V0.5z"/>
	</g>
	<g>
		<rect x="398" y="1.4" class="st0" width="4" height="45.2"/>
	</g>
</g>
<g>
	<g>
		<path class="st0" d="M628,4v39.5c0,0.3-0.2,0.5-0.5,0.5h-39c-0.3,0-0.5-0.2-0.5-0.5v-39c0-0.3,0.2-0.5,0.5-0.5H628 M632,0.5
			c0-0.3-0.2-0.5-0.5-0.5h-47c-0.3,0-0.5,0.2-0.5,0.5v47c0,0.3,0.2,0.5,0.5,0.5h47c0.3,0,0.5-0.2,0.5-0.5V0.5z"/>
	</g>
	<g>
		<rect x="585.4" y="11" class="st0" width="45.2" height="4"/>
	</g>
</g>
<g>
	<g>
		<path class="st0" d="M482,4v39.5c0,0.3-0.2,0.5-0.5,0.5h-39c-0.3,0-0.5-0.2-0.5-0.5v-39c0-0.3,0.2-0.5,0.5-0.5H482 M486,0.5
			c0-0.3-0.2-0.5-0.5-0.5h-47c-0.3,0-0.5,0.2-0.5,0.5v47c0,0.3,0.2,0.5,0.5,0.5h47c0.3,0,0.5-0.2,0.5-0.5V0.5z"/>
	</g>
	<g>
		<rect x="460" y="1.4" class="st0" width="4" height="45.2"/>
	</g>
</g>
<g>
	<g>
		<path class="st0" d="M555,4v39.5c0,0.3-0.2,0.5-0.5,0.5h-39c-0.3,0-0.5-0.2-0.5-0.5v-39c0-0.3,0.2-0.5,0.5-0.5H555 M559,0.5
			c0-0.3-0.2-0.5-0.5-0.5h-47c-0.3,0-0.5,0.2-0.5,0.5v47c0,0.3,0.2,0.5,0.5,0.5h47c0.3,0,0.5-0.2,0.5-0.5V0.5z"/>
	</g>
	<g>
		<rect x="522" y="1.4" class="st0" width="4" height="45.2"/>
	</g>
	<g>
		<rect x="533" y="1.4" class="st0" width="4" height="45.2"/>
	</g>
	<g>
		<rect x="544" y="1.4" class="st0" width="4" height="45.2"/>
	</g>
</g>
<g>
	<g>
		<path class="st0" d="M-29,77v39.5c0,0.3-0.2,0.5-0.5,0.5h-39c-0.3,0-0.5-0.2-0.5-0.5v-39c0-0.3,0.2-0.5,0.5-0.5H-29 M-25,73.5
			c0-0.3-0.2-0.5-0.5-0.5h-47c-0.3,0-0.5,0.2-0.5,0.5v47c0,0.3,0.2,0.5,0.5,0.5h47c0.3,0,0.5-0.2,0.5-0.5V73.5z"/>
	</g>
	<g>
		<rect x="-71.6" y="84" class="st0" width="45.2" height="4"/>
	</g>
	<g>
		<rect x="-51" y="85.9" class="st0" width="4" height="34.2"/>
	</g>
</g>
<g>
	<g>
		<path class="st0" d="M263,77v39.5c0,0.3-0.2,0.5-0.5,0.5h-39c-0.3,0-0.5-0.2-0.5-0.5v-39c0-0.3,0.2-0.5,0.5-0.5H263 M267,73.5
			c0-0.3-0.2-0.5-0.5-0.5h-47c-0.3,0-0.5,0.2-0.5,0.5v47c0,0.3,0.2,0.5,0.5,0.5h47c0.3,0,0.5-0.2,0.5-0.5V73.5z"/>
	</g>
</g>
<g>
	<g>
		<g>
			<path class="st0" d="M44,77v39.5c0,0.3-0.2,0.5-0.5,0.5h-39c-0.3,0-0.5-0.2-0.5-0.5v-39C4,77.2,4.2,77,4.5,77H44 M48,73.5
				c0-0.3-0.2-0.5-0.5-0.5h-47C0.2,73,0,73.2,0,73.5v47c0,0.3,0.2,0.5,0.5,0.5h47c0.3,0,0.5-0.2,0.5-0.5V73.5z"/>
		</g>
	</g>
	<g>
		<g>
			<path class="st0" d="M46.1,84c0.3,0,0.5,0.2,0.5,0.5v3c0,0.3-0.2,0.5-0.5,0.5H1.9c-0.3,0-0.5-0.2-0.5-0.5v-3
				c0-0.3,0.2-0.5,0.5-0.5H46.1z"/>
		</g>
	</g>
	<g>
		<path class="st0" d="M15,118.8c0,0.3-0.2,0.5-0.5,0.5h-3c-0.3,0-0.5-0.2-0.5-0.5l0-33.2c0-0.3,0.2-0.5,0.5-0.5h3
			c0.3,0,0.5,0.2,0.5,0.5L15,118.8z"/>
	</g>
	<g>
		<rect x="33" y="85.5" class="st0" width="4" height="34.2"/>
	</g>
</g>
<g>
	<g>
		<path class="st0" d="M190,77v39.5c0,0.3-0.2,0.5-0.5,0.5h-39c-0.3,0-0.5-0.2-0.5-0.5v-39c0-0.3,0.2-0.5,0.5-0.5H190 M194,73.5
			c0-0.3-0.2-0.5-0.5-0.5h-47c-0.3,0-0.5,0.2-0.5,0.5v47c0,0.3,0.2,0.5,0.5,0.5h47c0.3,0,0.5-0.2,0.5-0.5V73.5z"/>
	</g>
	<g>
		<path class="st0" d="M192.1,84c0.3,0,0.5,0.2,0.5,0.5v3c0,0.3-0.2,0.5-0.5,0.5h-44.2c-0.3,0-0.5-0.2-0.5-0.5v-3
			c0-0.3,0.2-0.5,0.5-0.5H192.1z"/>
	</g>
	<g>
		<rect x="179" y="85.5" class="st0" width="4" height="34.2"/>
	</g>
</g>
<g>
	<g>
		<g>
			<path class="st0" d="M117,77v39.5c0,0.3-0.2,0.5-0.5,0.5h-39c-0.3,0-0.5-0.2-0.5-0.5v-39c0-0.3,0.2-0.5,0.5-0.5H117 M121,73.5
				c0-0.3-0.2-0.5-0.5-0.5h-47c-0.3,0-0.5,0.2-0.5,0.5v47c0,0.3,0.2,0.5,0.5,0.5h47c0.3,0,0.5-0.2,0.5-0.5V73.5z"/>
		</g>
	</g>
	<g>
		<g>
			<path class="st0" d="M119.1,84c0.3,0,0.5,0.2,0.5,0.5v3c0,0.3-0.2,0.5-0.5,0.5l-44.2,0c-0.3,0-0.5-0.2-0.5-0.5v-3
				c0-0.3,0.2-0.5,0.5-0.5L119.1,84z"/>
		</g>
	</g>
	<g>
		<path class="st0" d="M88,118.8c0,0.3-0.2,0.5-0.5,0.5h-3c-0.3,0-0.5-0.2-0.5-0.5l0-33.2c0-0.3,0.2-0.5,0.5-0.5h3
			c0.3,0,0.5,0.2,0.5,0.5L88,118.8z"/>
	</g>
</g>
<g>
	<g>
		<path class="st0" d="M340,80.2c0,0.3-0.2,0.5-0.5,0.5h-47c-0.3,0-0.5-0.2-0.5-0.5v-4.1c0-0.3,0.2-0.5,0.5-0.5h47
			c0.3,0,0.5,0.2,0.5,0.5V80.2z"/>
	</g>
	<g>
		<path class="st0" d="M340,89.7c0,0.3-0.2,0.5-0.5,0.5h-47c-0.3,0-0.5-0.2-0.5-0.5v-4.1c0-0.3,0.2-0.5,0.5-0.5h47
			c0.3,0,0.5,0.2,0.5,0.5V89.7z"/>
	</g>
	<g>
		<path class="st0" d="M340,99.1c0,0.3-0.2,0.5-0.5,0.5h-47c-0.3,0-0.5-0.2-0.5-0.5v-4.1c0-0.3,0.2-0.5,0.5-0.5h47
			c0.3,0,0.5,0.2,0.5,0.5V99.1z"/>
	</g>
	<g>
		<path class="st0" d="M340,108.5c0,0.3-0.2,0.5-0.5,0.5h-47c-0.3,0-0.5-0.2-0.5-0.5v-4.1c0-0.3,0.2-0.5,0.5-0.5h47
			c0.3,0,0.5,0.2,0.5,0.5V108.5z"/>
	</g>
	<g>
		<path class="st0" d="M340,117.9c0,0.3-0.2,0.5-0.5,0.5h-47c-0.3,0-0.5-0.2-0.5-0.5v-4.1c0-0.3,0.2-0.5,0.5-0.5h47
			c0.3,0,0.5,0.2,0.5,0.5V117.9z"/>
	</g>
</g>
<g>
	<g>
		<path class="st0" d="M401.5,80.2c0,0.3-0.2,0.5-0.5,0.5h-24c-0.3,0-0.5-0.2-0.5-0.5v-4.1c0-0.3,0.2-0.5,0.5-0.5h24
			c0.3,0,0.5,0.2,0.5,0.5V80.2z"/>
	</g>
	<g>
		<path class="st0" d="M409.3,89.7c0,0.3-0.2,0.5-0.5,0.5h-39.6c-0.3,0-0.5-0.2-0.5-0.5v-4.1c0-0.3,0.2-0.5,0.5-0.5h39.6
			c0.3,0,0.5,0.2,0.5,0.5V89.7z"/>
	</g>
	<g>
		<path class="st0" d="M413,99.1c0,0.3-0.2,0.5-0.5,0.5h-47c-0.3,0-0.5-0.2-0.5-0.5v-4.1c0-0.3,0.2-0.5,0.5-0.5h47
			c0.3,0,0.5,0.2,0.5,0.5V99.1z"/>
	</g>
	<g>
		<path class="st0" d="M400.2,108.5c0,0.3-0.2,0.5-0.5,0.5h-21.4c-0.3,0-0.5-0.2-0.5-0.5v-4.1c0-0.3,0.2-0.5,0.5-0.5h21.4
			c0.3,0,0.5,0.2,0.5,0.5V108.5z"/>
	</g>
	<g>
		<path class="st0" d="M408.9,117.9c0,0.3-0.2,0.5-0.5,0.5h-38.8c-0.3,0-0.5-0.2-0.5-0.5v-4.1c0-0.3,0.2-0.5,0.5-0.5h38.8
			c0.3,0,0.5,0.2,0.5,0.5V117.9z"/>
	</g>
</g>
<g>
	<g>
		<path class="st0" d="M463,80.2c0,0.3-0.2,0.5-0.5,0.5h-24c-0.3,0-0.5-0.2-0.5-0.5v-4.1c0-0.3,0.2-0.5,0.5-0.5h24
			c0.3,0,0.5,0.2,0.5,0.5V80.2z"/>
	</g>
	<g>
		<path class="st0" d="M478.6,89.7c0,0.3-0.2,0.5-0.5,0.5h-39.6c-0.3,0-0.5-0.2-0.5-0.5v-4.1c0-0.3,0.2-0.5,0.5-0.5h39.6
			c0.3,0,0.5,0.2,0.5,0.5V89.7z"/>
	</g>
	<g>
		<path class="st0" d="M486,99.1c0,0.3-0.2,0.5-0.5,0.5h-47c-0.3,0-0.5-0.2-0.5-0.5v-4.1c0-0.3,0.2-0.5,0.5-0.5h47
			c0.3,0,0.5,0.2,0.5,0.5V99.1z"/>
	</g>
	<g>
		<path class="st0" d="M460.4,108.5c0,0.3-0.2,0.5-0.5,0.5h-21.4c-0.3,0-0.5-0.2-0.5-0.5v-4.1c0-0.3,0.2-0.5,0.5-0.5h21.4
			c0.3,0,0.5,0.2,0.5,0.5V108.5z"/>
	</g>
	<g>
		<path class="st0" d="M477.8,117.9c0,0.3-0.2,0.5-0.5,0.5h-38.8c-0.3,0-0.5-0.2-0.5-0.5v-4.1c0-0.3,0.2-0.5,0.5-0.5h38.8
			c0.3,0,0.5,0.2,0.5,0.5V117.9z"/>
	</g>
</g>
<g>
	<g>
		<path class="st0" d="M559,80.2c0,0.3-0.2,0.5-0.5,0.5h-24c-0.3,0-0.5-0.2-0.5-0.5v-4.1c0-0.3,0.2-0.5,0.5-0.5h24
			c0.3,0,0.5,0.2,0.5,0.5V80.2z"/>
	</g>
	<g>
		<path class="st0" d="M559,89.7c0,0.3-0.2,0.5-0.5,0.5h-39.6c-0.3,0-0.5-0.2-0.5-0.5v-4.1c0-0.3,0.2-0.5,0.5-0.5h39.6
			c0.3,0,0.5,0.2,0.5,0.5V89.7z"/>
	</g>
	<g>
		<path class="st0" d="M559,99.1c0,0.3-0.2,0.5-0.5,0.5h-47c-0.3,0-0.5-0.2-0.5-0.5v-4.1c0-0.3,0.2-0.5,0.5-0.5h47
			c0.3,0,0.5,0.2,0.5,0.5V99.1z"/>
	</g>
	<g>
		<path class="st0" d="M559,108.5c0,0.3-0.2,0.5-0.5,0.5h-21.4c-0.3,0-0.5-0.2-0.5-0.5v-4.1c0-0.3,0.2-0.5,0.5-0.5h21.4
			c0.3,0,0.5,0.2,0.5,0.5V108.5z"/>
	</g>
	<g>
		<path class="st0" d="M559,117.9c0,0.3-0.2,0.5-0.5,0.5h-38.8c-0.3,0-0.5-0.2-0.5-0.5v-4.1c0-0.3,0.2-0.5,0.5-0.5h38.8
			c0.3,0,0.5,0.2,0.5,0.5V117.9z"/>
	</g>
</g>
<g>
	<g>
		<path class="st0" d="M632,85.4c0,0.3-0.2,0.5-0.5,0.5h-34.7c-0.3,0-0.5-0.2-0.5-0.5v-3.9c0-0.3,0.2-0.5,0.5-0.5h34.7
			c0.3,0,0.5,0.2,0.5,0.5V85.4z"/>
	</g>
	<g>
		<circle class="st0" cx="588.8" cy="83.5" r="4.8"/>
	</g>
	<g>
		<path class="st0" d="M632,99c0,0.3-0.2,0.5-0.5,0.5h-34.7c-0.3,0-0.5-0.2-0.5-0.5V95c0-0.3,0.2-0.5,0.5-0.5h34.7
			c0.3,0,0.5,0.2,0.5,0.5V99z"/>
	</g>
	<g>
		<circle class="st0" cx="588.8" cy="97" r="4.8"/>
	</g>
	<g>
		<path class="st0" d="M632,112.5c0,0.3-0.2,0.5-0.5,0.5h-34.7c-0.3,0-0.5-0.2-0.5-0.5v-3.9c0-0.3,0.2-0.5,0.5-0.5h34.7
			c0.3,0,0.5,0.2,0.5,0.5V112.5z"/>
	</g>
	<g>
		<circle class="st0" cx="588.8" cy="110.5" r="4.8"/>
	</g>
</g>
<g>
	<g>
		<path class="st0" d="M-62.5,193.5c0,0.3-0.2,0.5-0.5,0.5h-6c-0.3,0-0.5-0.2-0.5-0.5v-47c0-0.3,0.2-0.5,0.5-0.5h6
			c0.3,0,0.5,0.2,0.5,0.5V193.5z"/>
	</g>
	<g>
		<g>
			<g>
				<path class="st0" d="M-44.5,157.2v4.8h-11v-4.8H-44.5 M-41,153.2h-18c-0.3,0-0.5,0.2-0.5,0.5v11.8c0,0.3,0.2,0.5,0.5,0.5h18
					c0.3,0,0.5-0.2,0.5-0.5v-11.8C-40.5,153.4-40.7,153.2-41,153.2L-41,153.2z"/>
			</g>
		</g>
		<g>
			<g>
				<path class="st0" d="M-32.5,173.6v9.2h-23v-9.2H-32.5 M-29,169.6h-30c-0.3,0-0.5,0.2-0.5,0.5v16.2c0,0.3,0.2,0.5,0.5,0.5h30
					c0.3,0,0.5-0.2,0.5-0.5v-16.2C-28.5,169.8-28.7,169.6-29,169.6L-29,169.6z"/>
			</g>
		</g>
	</g>
</g>
<g>
	<g>
		<path class="st0" d="M110.5,193.5c0,0.3,0.2,0.5,0.5,0.5h6c0.3,0,0.5-0.2,0.5-0.5v-47c0-0.3-0.2-0.5-0.5-0.5h-6
			c-0.3,0-0.5,0.2-0.5,0.5V193.5z"/>
	</g>
	<g>
		<g>
			<g>
				<path class="st0" d="M103.5,157.2v4.8h-11v-4.8H103.5 M107,153.2H89c-0.3,0-0.5,0.2-0.5,0.5v11.8c0,0.3,0.2,0.5,0.5,0.5h18
					c0.3,0,0.5-0.2,0.5-0.5v-11.8C107.5,153.4,107.3,153.2,107,153.2L107,153.2z"/>
			</g>
		</g>
		<g>
			<g>
				<path class="st0" d="M103.5,173.6v9.2h-23v-9.2H103.5 M107,169.6H77c-0.3,0-0.5,0.2-0.5,0.5v16.2c0,0.3,0.2,0.5,0.5,0.5h30
					c0.3,0,0.5-0.2,0.5-0.5v-16.2C107.5,169.8,107.3,169.6,107,169.6L107,169.6z"/>
			</g>
		</g>
	</g>
</g>
<g>
	<g>
		<path class="st0" d="M266.5,183.5c0.3,0,0.5,0.2,0.5,0.5v6c0,0.3-0.2,0.5-0.5,0.5h-47c-0.3,0-0.5-0.2-0.5-0.5v-6
			c0-0.3,0.2-0.5,0.5-0.5H266.5z"/>
	</g>
	<g>
		<g>
			<g>
				<path class="st0" d="M235,165.5v11h-4.8v-11H235 M238.5,161.5h-11.8c-0.3,0-0.5,0.2-0.5,0.5v18c0,0.3,0.2,0.5,0.5,0.5h11.8
					c0.3,0,0.5-0.2,0.5-0.5v-18C239,161.7,238.8,161.5,238.5,161.5L238.5,161.5z"/>
			</g>
		</g>
		<g>
			<g>
				<path class="st0" d="M255.8,153.5v23h-9.2v-23H255.8 M259.3,149.5h-16.2c-0.3,0-0.5,0.2-0.5,0.5v30c0,0.3,0.2,0.5,0.5,0.5h16.2
					c0.3,0,0.5-0.2,0.5-0.5v-30C259.8,149.7,259.5,149.5,259.3,149.5L259.3,149.5z"/>
			</g>
		</g>
	</g>
</g>
<g>
	<g>
		<path class="st0" d="M193.5,156.5c0.3,0,0.5-0.2,0.5-0.5v-6c0-0.3-0.2-0.5-0.5-0.5h-47c-0.3,0-0.5,0.2-0.5,0.5v6
			c0,0.3,0.2,0.5,0.5,0.5H193.5z"/>
	</g>
	<g>
		<g>
			<g>
				<path class="st0" d="M162,163.5v11h-4.8v-11H162 M165.5,159.5h-11.8c-0.3,0-0.5,0.2-0.5,0.5v18c0,0.3,0.2,0.5,0.5,0.5h11.8
					c0.3,0,0.5-0.2,0.5-0.5v-18C166,159.7,165.8,159.5,165.5,159.5L165.5,159.5z"/>
			</g>
		</g>
		<g>
			<g>
				<path class="st0" d="M182.8,163.5v23h-9.2v-23H182.8 M186.3,159.5h-16.2c-0.3,0-0.5,0.2-0.5,0.5v30c0,0.3,0.2,0.5,0.5,0.5h16.2
					c0.3,0,0.5-0.2,0.5-0.5v-30C186.8,159.7,186.5,159.5,186.3,159.5L186.3,159.5z"/>
			</g>
		</g>
	</g>
</g>
<g>
	<g>
		<path class="st0" d="M29.5,157.2v4.8h-11v-4.8H29.5 M33,153.2H15c-0.3,0-0.5,0.2-0.5,0.5v11.8c0,0.3,0.2,0.5,0.5,0.5h18
			c0.3,0,0.5-0.2,0.5-0.5v-11.8C33.5,153.4,33.3,153.2,33,153.2L33,153.2z"/>
	</g>
	<g>
		<path class="st0" d="M35.5,173.6v9.2h-23v-9.2H35.5 M39,169.6H9c-0.3,0-0.5,0.2-0.5,0.5v16.2c0,0.3,0.2,0.5,0.5,0.5h30
			c0.3,0,0.5-0.2,0.5-0.5v-16.2C39.5,169.8,39.3,169.6,39,169.6L39,169.6z"/>
	</g>
	<g>
		<path class="st0" d="M27,154.9c0.3,0,0.5-0.2,0.5-0.5v-7.9c0-0.3-0.2-0.5-0.5-0.5h-6c-0.3,0-0.5,0.2-0.5,0.5v7.9
			c0,0.3,0.2,0.5,0.5,0.5H27z"/>
	</g>
	<g>
		<g>
			<path class="st0" d="M21,184.6c-0.3,0-0.5,0.2-0.5,0.5v8.4c0,0.3,0.2,0.5,0.5,0.5h6c0.3,0,0.5-0.2,0.5-0.5v-8.4
				c0-0.3-0.2-0.5-0.5-0.5H21z"/>
		</g>
		<g>
			<path class="st0" d="M27,171.4c0.3,0,0.5-0.2,0.5-0.5v-6.1c0-0.3-0.2-0.5-0.5-0.5h-6c-0.3,0-0.5,0.2-0.5,0.5v6.1
				c0,0.3,0.2,0.5,0.5,0.5H27z"/>
		</g>
	</g>
</g>
<g>
	<g>
		<path class="st0" d="M308,164.5v11h-4.8v-11H308 M311.5,160.5h-11.8c-0.3,0-0.5,0.2-0.5,0.5v18c0,0.3,0.2,0.5,0.5,0.5h11.8
			c0.3,0,0.5-0.2,0.5-0.5v-18C312,160.7,311.8,160.5,311.5,160.5L311.5,160.5z"/>
	</g>
	<g>
		<path class="st0" d="M319.6,158.5h9.2v23h-9.2V158.5 M316.1,154.5c-0.3,0-0.5,0.2-0.5,0.5v30c0,0.3,0.2,0.5,0.5,0.5h16.2
			c0.3,0,0.5-0.2,0.5-0.5v-30c0-0.3-0.2-0.5-0.5-0.5H316.1L316.1,154.5z"/>
	</g>
	<g>
		<path class="st0" d="M300.9,167c0-0.3-0.2-0.5-0.5-0.5h-7.9c-0.3,0-0.5,0.2-0.5,0.5v6c0,0.3,0.2,0.5,0.5,0.5h7.9
			c0.3,0,0.5-0.2,0.5-0.5V167z"/>
	</g>
	<g>
		<g>
			<path class="st0" d="M330.6,173c0,0.3,0.2,0.5,0.5,0.5h8.4c0.3,0,0.5-0.2,0.5-0.5v-6c0-0.3-0.2-0.5-0.5-0.5h-8.4
				c-0.3,0-0.5,0.2-0.5,0.5V173z"/>
		</g>
		<g>
			<path class="st0" d="M317.4,167c0-0.3-0.2-0.5-0.5-0.5h-6.1c-0.3,0-0.5,0.2-0.5,0.5v6c0,0.3,0.2,0.5,0.5,0.5h6.1
				c0.3,0,0.5-0.2,0.5-0.5V167z"/>
		</g>
	</g>
</g>
<g>
	<g>
		<g>
			<g>
				<g>
					<path class="st0" d="M375.7,183.3c0,0.1-0.1,0.2-0.2,0.2h-10.4c-0.1,0-0.2-0.1-0.2-0.2v-4.4c0-0.1,0.1-0.2,0.2-0.2h10.4
						c0.1,0,0.2,0.1,0.2,0.2V183.3z"/>
				</g>
			</g>
			<g>
				<g>
					<path class="st0" d="M375.7,178.1c0,0.1-0.1,0.2-0.2,0.2h-10.4c-0.1,0-0.2-0.1-0.2-0.2v-0.8c0-0.1,0.1-0.2,0.2-0.2h10.4
						c0.1,0,0.2,0.1,0.2,0.2V178.1z"/>
				</g>
			</g>
		</g>
		<g>
			<g>
				<g>
					<path class="st0" d="M371.1,177.8c0.1,0,0.2-0.1,0.2-0.2V153c0-0.1-0.1-0.2-0.2-0.2h-1.5c-0.1,0-0.2,0.1-0.2,0.2v24.6
						c0,0.1,0.1,0.2,0.2,0.2H371.1z"/>
				</g>
			</g>
			<g>
				<g>
					<path class="st0" d="M369.6,180.1c-0.1,0-0.2,0.1-0.2,0.2v6.8c0,0.1,0.1,0.2,0.2,0.2h1.5c0.1,0,0.2-0.1,0.2-0.2v-6.8
						c0-0.1-0.1-0.2-0.2-0.2H369.6z"/>
				</g>
			</g>
		</g>
	</g>
	<g>
		<g>
			<g>
				<g>
					<path class="st0" d="M388.2,176.6c0,0.1-0.1,0.2-0.2,0.2h-10.4c-0.1,0-0.2-0.1-0.2-0.2v-4.4c0-0.1,0.1-0.2,0.2-0.2H388
						c0.1,0,0.2,0.1,0.2,0.2V176.6z"/>
				</g>
			</g>
			<g>
				<g>
					<path class="st0" d="M388.2,171.4c0,0.1-0.1,0.2-0.2,0.2h-10.4c-0.1,0-0.2-0.1-0.2-0.2v-0.8c0-0.1,0.1-0.2,0.2-0.2H388
						c0.1,0,0.2,0.1,0.2,0.2V171.4z"/>
				</g>
			</g>
		</g>
		<g>
			<g>
				<g>
					<path class="st0" d="M383.5,171c0.1,0,0.2-0.1,0.2-0.2V153c0-0.1-0.1-0.2-0.2-0.2h-1.5c-0.1,0-0.2,0.1-0.2,0.2v17.8
						c0,0.1,0.1,0.2,0.2,0.2H383.5z"/>
				</g>
			</g>
			<g>
				<g>
					<path class="st0" d="M382.1,173.2c-0.1,0-0.2,0.1-0.2,0.2V187c0,0.1,0.1,0.2,0.2,0.2h1.5c0.1,0,0.2-0.1,0.2-0.2v-13.6
						c0-0.1-0.1-0.2-0.2-0.2H382.1z"/>
				</g>
			</g>
		</g>
	</g>
	<g>
		<g>
			<g>
				<g>
					<path class="st0" d="M400.6,169.6c0,0.1-0.1,0.2-0.2,0.2H390c-0.1,0-0.2-0.1-0.2-0.2v-4.4c0-0.1,0.1-0.2,0.2-0.2h10.4
						c0.1,0,0.2,0.1,0.2,0.2V169.6z"/>
				</g>
			</g>
			<g>
				<g>
					<path class="st0" d="M400.6,164.4c0,0.1-0.1,0.2-0.2,0.2H390c-0.1,0-0.2-0.1-0.2-0.2v-0.8c0-0.1,0.1-0.2,0.2-0.2h10.4
						c0.1,0,0.2,0.1,0.2,0.2V164.4z"/>
				</g>
			</g>
		</g>
		<g>
			<g>
				<g>
					<path class="st0" d="M395.9,164c0.1,0,0.2-0.1,0.2-0.2V153c0-0.1-0.1-0.2-0.2-0.2h-1.5c-0.1,0-0.2,0.1-0.2,0.2v10.8
						c0,0.1,0.1,0.2,0.2,0.2H395.9z"/>
				</g>
			</g>
			<g>
				<g>
					<path class="st0" d="M394.5,166.2c-0.1,0-0.2,0.1-0.2,0.2V187c0,0.1,0.1,0.2,0.2,0.2h1.5c0.1,0,0.2-0.1,0.2-0.2v-20.6
						c0-0.1-0.1-0.2-0.2-0.2H394.5z"/>
				</g>
			</g>
		</g>
	</g>
	<g>
		<g>
			<g>
				<g>
					<path class="st0" d="M413,162.6c0,0.1-0.1,0.2-0.2,0.2h-10.4c-0.1,0-0.2-0.1-0.2-0.2v-4.4c0-0.1,0.1-0.2,0.2-0.2h10.4
						c0.1,0,0.2,0.1,0.2,0.2V162.6z"/>
				</g>
			</g>
			<g>
				<g>
					<path class="st0" d="M413,157.4c0,0.1-0.1,0.2-0.2,0.2h-10.4c-0.1,0-0.2-0.1-0.2-0.2v-0.8c0-0.1,0.1-0.2,0.2-0.2h10.4
						c0.1,0,0.2,0.1,0.2,0.2V157.4z"/>
				</g>
			</g>
		</g>
		<g>
			<g>
				<g>
					<path class="st0" d="M408.4,157.1c0.1,0,0.2-0.1,0.2-0.2v-4c0-0.1-0.1-0.2-0.2-0.2h-1.5c-0.1,0-0.2,0.1-0.2,0.2v4
						c0,0.1,0.1,0.2,0.2,0.2H408.4z"/>
				</g>
			</g>
			<g>
				<g>
					<path class="st0" d="M406.9,159.4c-0.1,0-0.2,0.1-0.2,0.2V187c0,0.1,0.1,0.2,0.2,0.2h1.5c0.1,0,0.2-0.1,0.2-0.2v-27.4
						c0-0.1-0.1-0.2-0.2-0.2H406.9z"/>
				</g>
			</g>
		</g>
	</g>
</g>
<g>
	<g>
		<path class="st0" d="M516.2,187.3c-2.9,0-5.2-2.3-5.2-5.2c0-2.9,2.3-5.2,5.2-5.2c2.9,0,5.2,2.3,5.2,5.2
			C521.4,185,519.1,187.3,516.2,187.3z M516.2,179.7c-1.3,0-2.4,1.1-2.4,2.4c0,1.3,1.1,2.4,2.4,2.4s2.4-1.1,2.4-2.4
			C518.6,180.8,517.5,179.7,516.2,179.7z"/>
	</g>
	<g>
		<path class="st0" d="M528.7,179.2c-2.9,0-5.2-2.3-5.2-5.2c0-2.9,2.3-5.2,5.2-5.2c2.9,0,5.2,2.3,5.2,5.2
			C533.9,176.9,531.6,179.2,528.7,179.2z M528.7,171.7c-1.3,0-2.4,1.1-2.4,2.4c0,1.3,1.1,2.4,2.4,2.4s2.4-1.1,2.4-2.4
			C531.1,172.7,530,171.7,528.7,171.7z"/>
	</g>
	<g>
		<path class="st0" d="M540.4,171.2c-2.9,0-5.2-2.3-5.2-5.2c0-2.9,2.3-5.2,5.2-5.2c2.9,0,5.2,2.3,5.2,5.2
			C545.6,168.8,543.3,171.2,540.4,171.2z M540.4,163.6c-1.3,0-2.4,1.1-2.4,2.4c0,1.3,1.1,2.4,2.4,2.4s2.4-1.1,2.4-2.4
			C542.8,164.7,541.7,163.6,540.4,163.6z"/>
	</g>
	<g>
		<path class="st0" d="M553.8,163.1c-2.9,0-5.2-2.3-5.2-5.2c0-2.9,2.3-5.2,5.2-5.2s5.2,2.3,5.2,5.2
			C559,160.8,556.7,163.1,553.8,163.1z M553.8,155.5c-1.3,0-2.4,1.1-2.4,2.4c0,1.3,1.1,2.4,2.4,2.4s2.4-1.1,2.4-2.4
			C556.2,156.6,555.1,155.5,553.8,155.5z"/>
	</g>
	<g>
		<g>
			<path class="st0" d="M516.1,178.4c0.5,0,0.9,0.1,1.4,0.3v-28.3c0-0.7-0.6-1.3-1.3-1.3c-0.7,0-1.3,0.6-1.3,1.3v28.2
				C515.3,178.4,515.7,178.4,516.1,178.4z"/>
		</g>
		<g>
			<path class="st0" d="M516.1,186c-0.4,0-0.8-0.1-1.2-0.2v3.9c0,0.7,0.6,1.3,1.3,1.3c0.7,0,1.3-0.6,1.3-1.3v-3.9
				C517,185.9,516.6,186,516.1,186z"/>
		</g>
	</g>
	<g>
		<g>
			<path class="st0" d="M528.7,170.3c0.4,0,0.9,0.1,1.3,0.2v-20.2c0-0.7-0.6-1.3-1.3-1.3c-0.7,0-1.3,0.6-1.3,1.3v20.2
				C527.9,170.4,528.3,170.3,528.7,170.3z"/>
		</g>
		<g>
			<path class="st0" d="M528.7,177.9c-0.4,0-0.9-0.1-1.3-0.2v12c0,0.7,0.6,1.3,1.3,1.3c0.7,0,1.3-0.6,1.3-1.3v-12
				C529.6,177.8,529.2,177.9,528.7,177.9z"/>
		</g>
	</g>
	<g>
		<g>
			<path class="st0" d="M540.3,162.2c0.5,0,0.9,0.1,1.3,0.2v-12c0-0.7-0.6-1.3-1.3-1.3c-0.7,0-1.3,0.6-1.3,1.3v12
				C539.5,162.2,539.9,162.2,540.3,162.2z"/>
		</g>
		<g>
			<path class="st0" d="M540.3,169.8c-0.4,0-0.8-0.1-1.2-0.2v20.1c0,0.7,0.6,1.3,1.3,1.3c0.7,0,1.3-0.6,1.3-1.3v-20.1
				C541.2,169.7,540.8,169.8,540.3,169.8z"/>
		</g>
	</g>
	<g>
		<g>
			<path class="st0" d="M553.8,154.1c0.4,0,0.8,0.1,1.2,0.2v-4c0-0.7-0.6-1.3-1.3-1.3c-0.7,0-1.3,0.6-1.3,1.3v4
				C552.9,154.2,553.4,154.1,553.8,154.1z"/>
		</g>
		<g>
			<path class="st0" d="M553.8,161.7c-0.5,0-0.9-0.1-1.3-0.2v28.2c0,0.7,0.6,1.3,1.3,1.3c0.7,0,1.3-0.6,1.3-1.3v-28.1
				C554.7,161.6,554.3,161.7,553.8,161.7z"/>
		</g>
	</g>
</g>
<g>
	<g>
		<path class="st0" d="M587.9,176c-2.2,0-3.9,1.7-3.9,3.9v4.2c0,2.2,1.7,3.9,3.9,3.9c2.2,0,3.9-1.7,3.9-3.9v-4.2
			C591.8,177.7,590,176,587.9,176z M587.9,182.5c-1.5,0-2.6-1.2-2.6-2.6c0-1.5,1.2-2.6,2.6-2.6c1.5,0,2.6,1.2,2.6,2.6
			C590.5,181.3,589.4,182.5,587.9,182.5z"/>
	</g>
	<g>
		<path class="st0" d="M597.8,170c-2.2,0-3.9,1.7-3.9,3.9v10.2c0,2.2,1.7,3.9,3.9,3.9c2.2,0,3.9-1.7,3.9-3.9v-10.2
			C601.7,171.7,600,170,597.8,170z M597.8,176.5c-1.5,0-2.6-1.2-2.6-2.6c0-1.5,1.2-2.6,2.6-2.6c1.5,0,2.6,1.2,2.6,2.6
			C600.5,175.3,599.3,176.5,597.8,176.5z"/>
	</g>
	<g>
		<path class="st0" d="M607.6,164c-2.2,0-3.9,1.7-3.9,3.9v16.2c0,2.2,1.7,3.9,3.9,3.9c2.2,0,3.9-1.7,3.9-3.9v-16.2
			C611.5,165.8,609.7,164,607.6,164z M607.6,170.5c-1.5,0-2.6-1.2-2.6-2.6c0-1.5,1.2-2.6,2.6-2.6c1.5,0,2.6,1.2,2.6,2.6
			C610.2,169.3,609,170.5,607.6,170.5z"/>
	</g>
	<g>
		<path class="st0" d="M617.8,158c-2.2,0-3.9,1.7-3.9,3.9v22.2c0,2.2,1.7,3.9,3.9,3.9c2.2,0,3.9-1.7,3.9-3.9v-22.2
			C621.7,159.8,620,158,617.8,158z M617.8,164.5c-1.5,0-2.6-1.2-2.6-2.6c0-1.5,1.2-2.6,2.6-2.6c1.5,0,2.6,1.2,2.6,2.6
			C620.5,163.3,619.3,164.5,617.8,164.5z"/>
	</g>
	<g>
		<path class="st0" d="M628.1,152c-2.2,0-3.9,1.7-3.9,3.9v28.2c0,2.2,1.7,3.9,3.9,3.9c2.2,0,3.9-1.7,3.9-3.9v-28.2
			C632,153.8,630.3,152,628.1,152z M628.1,158.5c-1.5,0-2.6-1.2-2.6-2.6c0-1.5,1.2-2.6,2.6-2.6c1.5,0,2.6,1.2,2.6,2.6
			C630.8,157.3,629.6,158.5,628.1,158.5z"/>
	</g>
</g>
<g>
	<g>
		<circle class="st0" cx="462.2" cy="180.2" r="6.5"/>
	</g>
	<g>
		<circle class="st0" cx="479.5" cy="165.9" r="6.5"/>
	</g>
	<g>
		<circle class="st0" cx="444.5" cy="159.8" r="6.5"/>
	</g>
	<g>
		<g>
			<path class="st0" d="M462.2,172.4c1.1,0,2.2,0.3,3.2,0.7v-22.8c0-1.1-0.9-2-2-2h-2.5c-1.1,0-2,0.9-2,2v22.8
				C459.9,172.7,461,172.4,462.2,172.4z"/>
		</g>
		<g>
			<path class="st0" d="M462.2,187.9c-1.1,0-2.2-0.3-3.2-0.7v2.4c0,1.1,0.9,2,2,2h2.5c1.1,0,2-0.9,2-2v-2.4
				C464.4,187.7,463.3,187.9,462.2,187.9z"/>
		</g>
	</g>
	<g>
		<g>
			<path class="st0" d="M479.5,158.1c1.1,0,2.2,0.3,3.2,0.7v-8.5c0-1.1-0.9-2-2-2h-2.5c-1.1,0-2,0.9-2,2v8.5
				C477.2,158.4,478.3,158.1,479.5,158.1z"/>
		</g>
		<g>
			<path class="st0" d="M479.5,173.6c-1.1,0-2.2-0.3-3.2-0.7v16.7c0,1.1,0.9,2,2,2h2.5c1.1,0,2-0.9,2-2v-16.7
				C481.7,173.4,480.6,173.6,479.5,173.6z"/>
		</g>
	</g>
	<g>
		<g>
			<path class="st0" d="M444.5,167.6c-1.1,0-2.2-0.3-3.2-0.7v22.8c0,1.1,0.9,2,2,2h2.5c1.1,0,2-0.9,2-2v-22.8
				C446.8,167.3,445.7,167.6,444.5,167.6z"/>
		</g>
		<g>
			<path class="st0" d="M444.5,152.1c1.1,0,2.2,0.3,3.2,0.7v-2.4c0-1.1-0.9-2-2-2h-2.5c-1.1,0-2,0.9-2,2v2.4
				C442.3,152.3,443.4,152.1,444.5,152.1z"/>
		</g>
	</g>
</g>
<g>
	<g>
		<path class="st0" d="M472.6,244.2l11.4-9.7c2.7-2.3,2.7-6.9-0.1-10.2c-2.8-3.3-7.3-4.1-10-1.7l-11.4,9.7
			c-2.7,2.3-2.7,6.9,0.1,10.2C465.4,245.8,469.9,246.5,472.6,244.2z M466.9,233.6l7.5-6.4c1.8-1.5,4.4-1.5,5.8,0.2
			c1.4,1.7,1.1,4.3-0.7,5.8l-7.5,6.4c-1.8,1.5-4.4,1.5-5.8-0.2C464.8,237.8,465.1,235.2,466.9,233.6z"/>
	</g>
	<g>
		<path class="st0" d="M450.2,263.4l11.4-9.7c2.7-2.3,2.7-6.9-0.1-10.2c-2.8-3.3-7.3-4.1-10-1.7l-11.4,9.7
			c-2.7,2.3-2.7,6.9,0.1,10.2C442.9,264.9,447.4,265.7,450.2,263.4z M444.4,252.8l7.5-6.4c1.8-1.5,4.4-1.5,5.8,0.2
			c1.4,1.7,1.1,4.3-0.7,5.8l-7.5,6.4c-1.8,1.5-4.4,1.5-5.8-0.2C442.3,256.9,442.6,254.3,444.4,252.8z"/>
	</g>
	<g>
		<path class="st0" d="M452.2,251.1c-1.1-1.3-0.8-3.4,0.8-4.7l14.3-12.2c1.5-1.3,3.7-1.3,4.8,0l0,0c1.1,1.3,0.8,3.4-0.8,4.7
			L457,251.1C455.4,252.4,453.3,252.4,452.2,251.1L452.2,251.1z"/>
	</g>
</g>
<g>
	<g>
		<path class="st0" d="M618.6,244.2l11.4-9.7c2.7-2.3,2.7-6.9-0.1-10.2c-2.8-3.3-7.3-4.1-10-1.7l-11.4,9.7
			c-2.7,2.3-2.7,6.9,0.1,10.2C611.4,245.8,615.9,246.5,618.6,244.2z M612.9,233.6l7.5-6.4c1.8-1.5,4.4-1.5,5.8,0.2
			c1.4,1.7,1.1,4.3-0.7,5.8l-7.5,6.4c-1.8,1.5-4.4,1.5-5.8-0.2C610.8,237.8,611.1,235.2,612.9,233.6z"/>
	</g>
	<g>
		<path class="st0" d="M596.2,263.4l11.4-9.7c2.7-2.3,2.7-6.9-0.1-10.2c-2.8-3.3-7.3-4.1-10-1.7l-11.4,9.7
			c-2.7,2.3-2.7,6.9,0.1,10.2C588.9,264.9,593.4,265.7,596.2,263.4z M590.4,252.8l7.5-6.4c1.8-1.5,4.4-1.5,5.8,0.2
			c1.4,1.7,1.1,4.3-0.7,5.8l-7.5,6.4c-1.8,1.5-4.4,1.5-5.8-0.2C588.3,256.9,588.6,254.3,590.4,252.8z"/>
	</g>
	<g>
		<path class="st0" d="M598.2,251.1c-1.1-1.3-0.8-3.4,0.8-4.7l14.3-12.2c1.5-1.3,3.7-1.3,4.8,0l0,0c1.1,1.3,0.8,3.4-0.8,4.7
			L603,251.1C601.4,252.4,599.3,252.4,598.2,251.1L598.2,251.1z"/>
	</g>
</g>
<g>
	<path class="st0" d="M262.3,226.9c-2.6,0-4.7,2.1-4.7,4.7c0,1.1,0.4,2.1,1,2.9l-4.7,6.4c-0.7-0.5-1.6-0.7-2.5-0.7
		c-2.2,0-4,1.5-4.5,3.6h-8.6c-0.5-2-2.3-3.6-4.5-3.6c-2.6,0-4.7,2.1-4.7,4.7c0,0.8,0.2,1.5,0.6,2.2l-3.6,3.6
		c-0.7-0.5-1.6-0.8-2.6-0.8c-2.6,0-4.7,2.1-4.7,4.7c0,2.6,2.1,4.7,4.7,4.7c2.6,0,4.7-2.1,4.7-4.7c0-0.8-0.2-1.6-0.6-2.2l3.5-3.5
		c0.8,0.5,1.7,0.8,2.7,0.8c2.2,0,4-1.5,4.5-3.6h8.6c0.5,2,2.3,3.6,4.5,3.6c2.6,0,4.7-2.1,4.7-4.7c0-0.8-0.2-1.6-0.6-2.3l4.9-6.7
		c0.6,0.3,1.2,0.4,1.9,0.4c2.6,0,4.7-2.1,4.7-4.7C267,229,264.9,226.9,262.3,226.9z M223.7,256.9c-1.4,0-2.5-1.1-2.5-2.5
		c0-1.4,1.1-2.5,2.5-2.5c1.4,0,2.5,1.1,2.5,2.5C226.1,255.8,225,256.9,223.7,256.9z M233.9,247.3c-1.4,0-2.5-1.1-2.5-2.5
		c0-1.4,1.1-2.5,2.5-2.5c1.4,0,2.5,1.1,2.5,2.5C236.4,246.2,235.3,247.3,233.9,247.3z M251.5,247.3c-1.4,0-2.5-1.1-2.5-2.5
		c0-1.4,1.1-2.5,2.5-2.5c1.4,0,2.5,1.1,2.5,2.5C254,246.2,252.9,247.3,251.5,247.3z M262.3,234.1c-1.4,0-2.5-1.1-2.5-2.5
		c0-1.4,1.1-2.5,2.5-2.5c1.4,0,2.5,1.1,2.5,2.5C264.8,233,263.7,234.1,262.3,234.1z"/>
</g>
<g>
	<path class="st0" d="M-29.4,219h-39.2c-2.4,0-4.4,2-4.4,4.4v25.7l11.5-11.5c1-1,2.7-1,3.7,0l7.9,7.9l13.8-13.8c1-1,2.7-1,3.7,0
		c1,1,1,2.7,0,3.7l-15.1,15.1c-0.1,0.1-0.5,0.5-0.6,0.6v0c-1,1-2.7,1-3.7,0l-7.9-7.9l-13.3,13.3c0,0-0.1,0.1-0.1,0.1v6.1
		c0,2.4,2,4.4,4.4,4.4h39.2c2.4,0,4.4-2,4.4-4.4v-39.2C-25,221-27,219-29.4,219z"/>
</g>
<g>
	<g>
		<path class="st0" d="M120.6,241.2c0-0.4,0-0.8,0-1.2c0-11.6-9.5-21-21.3-21v22.2H120.6z"/>
	</g>
	<g>
		<g>
			<path class="st0" d="M95.1,245.3v-21.7c-12,0-21.7,9.7-21.7,21.7c0,12,9.7,21.7,21.7,21.7c12,0,21.7-9.7,21.7-21.7H95.1z"/>
		</g>
	</g>
</g>
<g>
	<g>
		
			<rect x="164.8" y="240.3" transform="matrix(0.5335 -0.8458 0.8458 0.5335 -121.0792 266.2545)" class="st0" width="32.1" height="5.1"/>
	</g>
	<g>
		<g>
			
				<rect x="145.6" y="244.9" transform="matrix(0.5336 -0.8457 0.8457 0.5336 -136.3735 247.5846)" class="st0" width="21.4" height="5.1"/>
		</g>
		<g>
			
				<rect x="164.1" y="236.8" transform="matrix(0.8458 -0.5335 0.5335 0.8458 -106.3142 127.086)" class="st0" width="5.1" height="21.4"/>
		</g>
	</g>
	<g>
		<circle class="st0" cx="172.2" cy="256.5" r="4.6"/>
	</g>
	<g>
		<circle class="st0" cx="189.4" cy="229.5" r="4.6"/>
	</g>
	<g>
		<circle class="st0" cx="161.5" cy="238" r="4.6"/>
	</g>
	<g>
		<circle class="st0" cx="150.6" cy="256.5" r="4.6"/>
	</g>
</g>
<g>
	<g>
		<path class="st0" d="M340,221.3h-18.3l6.8,6.8l-7.9,7.9l-11.2-11.2v0c0,0,0,0-0.1,0c-0.2-0.2-0.5-0.3-0.8-0.3
			c-0.3,0-0.6,0.1-0.9,0.4l-15.4,15.4c-0.5,0.5-0.5,1.2,0,1.7l3.4,3.4c0.5,0.5,1.2,0.5,1.7,0l11.2-11.2l11.2,11.2
			c0.1,0.1,0.3,0.2,0.4,0.3c0.4,0.2,1,0.1,1.3-0.3l3.4-3.4l8.7-8.7l6.3,6.3V221.3z"/>
	</g>
	<g>
		<path class="st0" d="M299.4,264.7c0.3,0,0.5-0.2,0.5-0.5v-17c0-0.3-0.2-0.3-0.4-0.1l-1.6,1.6c-0.2,0.2-0.6,0.4-0.8,0.5h-0.8
			c-0.3-0.1-0.6-0.3-0.8-0.5l-1.3-1.3c-0.2-0.2-0.4-0.1-0.4,0.1v16.6c0,0.3,0.2,0.5,0.5,0.5H299.4z"/>
	</g>
	<g>
		<path class="st0" d="M309.4,264.7c0.3,0,0.5-0.2,0.5-0.5v-24.5c0-0.3-0.2-0.7-0.4-0.9l-0.5-0.5c-0.2-0.2-0.5-0.2-0.7,0l-4.1,4.1
			c-0.2,0.2-0.4,0.6-0.4,0.9v20.9c0,0.3,0.2,0.5,0.5,0.5H309.4z"/>
	</g>
	<g>
		<path class="st0" d="M319.4,264.7c0.3,0,0.5-0.2,0.5-0.5v-14.5c0-0.3,0-0.5,0-0.5c0,0-0.2-0.2-0.4-0.4l-5.2-5.2
			c-0.2-0.2-0.4-0.1-0.4,0.1v20.6c0,0.3,0.2,0.5,0.5,0.5H319.4z"/>
	</g>
	<g>
		<path class="st0" d="M329.5,264.7c0.3,0,0.5-0.2,0.5-0.5v-23c0-0.3-0.2-0.3-0.4-0.1l-4.3,4.3c-0.2,0.2-0.5,0.5-0.7,0.7l-0.4,0.4
			c-0.2,0.2-0.4,0.6-0.4,0.9v17c0,0.3,0.2,0.5,0.5,0.5H329.5z"/>
	</g>
	<g>
		<path class="st0" d="M339.5,264.7c0.3,0,0.5-0.2,0.5-0.5v-20.5c0-0.3-0.2-0.7-0.4-0.9l-5.4-5.4c-0.2-0.2-0.4-0.1-0.4,0.1v26.6
			c0,0.3,0.2,0.5,0.5,0.5H339.5z"/>
	</g>
</g>
<g>
	<g>
		<path class="st0" d="M14.1,266c0,0.5-0.4,1-1,1H1.3c-0.5,0-1-0.4-1-1v-31.7c0-0.5,0.4-1,1-1h11.8c0.5,0,1,0.4,1,1V266z"/>
	</g>
	<g>
		<path class="st0" d="M30.9,266c0,0.5-0.4,1-1,1H18.1c-0.5,0-1-0.4-1-1V220c0-0.5,0.4-1,1-1h11.8c0.5,0,1,0.4,1,1V266z"/>
	</g>
	<g>
		<path class="st0" d="M47.7,266c0,0.5-0.4,1-1,1H34.9c-0.5,0-1-0.4-1-1V244c0-0.5,0.4-1,1-1h11.8c0.5,0,1,0.4,1,1V266z"/>
	</g>
</g>
<g>
	<g>
		<path class="st0" d="M413,265.2c0,0.6-0.4,1-1,1h-46c-0.6,0-1-0.4-1-1v-3c0-0.6,0.4-1,1-1h46c0.6,0,1,0.4,1,1V265.2z"/>
	</g>
	<g>
		<g>
			<path class="st0" d="M372,259.8c-0.7,0-1.2-0.5-1.2-1.2v-7.2c0-0.7,0.5-1.2,1.2-1.2h3.6c0.7,0,1.2,0.5,1.2,1.2v7.2
				c0,0.7-0.5,1.2-1.2,1.2H372z"/>
		</g>
		<g>
			<path class="st0" d="M379.6,259.8c-0.7,0-1.2-0.5-1.2-1.2v-12c0-0.7,0.5-1.2,1.2-1.2h3.6c0.7,0,1.2,0.5,1.2,1.2v12
				c0,0.7-0.5,1.2-1.2,1.2H379.6z"/>
		</g>
		<g>
			<path class="st0" d="M387.2,259.8c-0.7,0-1.2-0.5-1.2-1.2v-19.2c0-0.7,0.5-1.2,1.2-1.2h3.6c0.7,0,1.2,0.5,1.2,1.2v19.2
				c0,0.7-0.5,1.2-1.2,1.2H387.2z"/>
		</g>
		<g>
			<path class="st0" d="M394.8,259.8c-0.7,0-1.2-0.5-1.2-1.2v-30c0-0.7,0.5-1.2,1.2-1.2h3.6c0.7,0,1.2,0.5,1.2,1.2v30
				c0,0.7-0.5,1.2-1.2,1.2H394.8z"/>
		</g>
		<g>
			<path class="st0" d="M402.2,259.8c-0.6,0-1-0.4-1-1v-38c0-0.6,0.4-1,1-1h4c0.6,0,1,0.4,1,1v38c0,0.6-0.4,1-1,1H402.2z"/>
		</g>
	</g>
</g>
<g>
	<g>
		<path class="st0" d="M556,219.3l-20.4,0.1c-1.7,0-2,1-0.9,2.1l5.5,5.5c0,0-0.1,0-0.1,0.1l-10.3,10.3c-1.2,1.2-1.2,3.1,0,4.2
			l6.8,6.8c1.2,1.2,3.1,1.2,4.2,0l10.3-10.3c0,0,0-0.1,0.1-0.1l5.5,5.5c1.2,1.2,2.1,0.8,2.1-0.9l0.1-20.4
			C559,220.6,557.7,219.3,556,219.3z"/>
	</g>
	<g>
		<path class="st0" d="M543.4,250.9v5.8c0,2.8-2.2,5-5,5H521c-2.8,0-5-2.2-5-5v-17.3c0-2.8,2.2-5,5-5h6.9l5-5H521
			c-5.5,0-10,4.5-10,10v17.3c0,5.5,4.5,10,10,10h17.3c5.5,0,10-4.5,10-10v-10.8L543.4,250.9z"/>
	</g>
</g>
<g>
	<g>
		<path class="st0" d="M-34.4,319c-5.2,0-9.4,4.2-9.4,9.4s4.2,9.4,9.4,9.4c5.2,0,9.4-4.2,9.4-9.4S-29.2,319-34.4,319z M-28.2,329.3
			c0,0.4-0.3,0.6-0.6,0.6h-4.1v4.1c0,0.4-0.3,0.6-0.6,0.6h-1.7c-0.4,0-0.6-0.3-0.6-0.6V330H-40c-0.4,0-0.6-0.3-0.6-0.6v-1.7
			c0-0.4,0.3-0.6,0.6-0.6h4.1v-4.1c0-0.4,0.3-0.6,0.6-0.6h1.7c0.4,0,0.6,0.3,0.6,0.6v4.1h4.1c0.4,0,0.6,0.3,0.6,0.6V329.3z"/>
	</g>
	<g>
		<g>
			<path class="st0" d="M-40.4,315.7l10.7-9.1c2.6-2.2,2.5-6.5-0.1-9.6c-2.6-3.1-6.9-3.8-9.4-1.6l-10.7,9.1
				c-2.6,2.2-2.5,6.5,0.1,9.6C-47.2,317.2-43,317.9-40.4,315.7z M-45.8,305.8l7.1-6.1c1.7-1.5,4.2-1.4,5.5,0.2c1.3,1.6,1,4-0.7,5.5
				l-7.1,6.1c-1.7,1.5-4.2,1.4-5.5-0.2C-47.8,309.7-47.5,307.2-45.8,305.8z"/>
		</g>
		<g>
			<path class="st0" d="M-61.6,333.8l10.7-9.1c2.6-2.2,2.5-6.5-0.1-9.6c-2.6-3.1-6.9-3.8-9.4-1.6l-10.7,9.1
				c-2.6,2.2-2.5,6.5,0.1,9.6C-68.3,335.2-64.1,336-61.6,333.8z M-66.9,323.8l7.1-6.1c1.7-1.5,4.2-1.4,5.5,0.2c1.3,1.6,1,4-0.7,5.5
				l-7.1,6.1c-1.7,1.5-4.2,1.4-5.5-0.2C-68.9,327.7-68.6,325.3-66.9,323.8z"/>
		</g>
		<g>
			<path class="st0" d="M-59.6,322.2c-1-1.2-0.7-3.2,0.7-4.4l13.4-11.5c1.4-1.2,3.4-1.2,4.5,0l0,0c1,1.2,0.7,3.2-0.7,4.4l-13.4,11.5
				C-56.6,323.4-58.6,323.4-59.6,322.2L-59.6,322.2z"/>
		</g>
	</g>
</g>
<g>
	<g>
		<g>
			<path class="st0" d="M105.6,315.7l10.7-9.1c2.6-2.2,2.5-6.5-0.1-9.6c-2.6-3.1-6.9-3.8-9.4-1.6L96,304.5c-2.6,2.2-2.5,6.5,0.1,9.6
				C98.8,317.2,103,317.9,105.6,315.7z M100.2,305.8l7.1-6.1c1.7-1.5,4.2-1.4,5.5,0.2c1.3,1.6,1,4-0.7,5.5l-7.1,6.1
				c-1.7,1.5-4.2,1.4-5.5-0.2C98.2,309.7,98.5,307.2,100.2,305.8z"/>
		</g>
		<g>
			<path class="st0" d="M84.4,333.8l10.7-9.1c2.6-2.2,2.5-6.5-0.1-9.6c-2.6-3.1-6.9-3.8-9.4-1.6l-10.7,9.1c-2.6,2.2-2.5,6.5,0.1,9.6
				C77.7,335.2,81.9,336,84.4,333.8z M79.1,323.8l7.1-6.1c1.7-1.5,4.2-1.4,5.5,0.2c1.3,1.6,1,4-0.7,5.5l-7.1,6.1
				c-1.7,1.5-4.2,1.4-5.5-0.2C77.1,327.7,77.4,325.3,79.1,323.8z"/>
		</g>
		<g>
			<path class="st0" d="M86.4,322.2c-1-1.2-0.7-3.2,0.7-4.4l13.4-11.5c1.4-1.2,3.4-1.2,4.5,0l0,0c1,1.2,0.7,3.2-0.7,4.4l-13.4,11.5
				C89.4,323.4,87.4,323.4,86.4,322.2L86.4,322.2z"/>
		</g>
	</g>
	<g>
		<path class="st0" d="M111.6,319c-5.2,0-9.4,4.2-9.4,9.4c0,5.2,4.2,9.4,9.4,9.4c5.2,0,9.4-4.2,9.4-9.4
			C121,323.3,116.8,319,111.6,319z M116.6,332.2l-1.2,1.2c-0.3,0.3-0.7,0.3-0.9,0l-2.9-2.9l-2.9,2.9c-0.3,0.3-0.7,0.3-0.9,0
			l-1.2-1.2c-0.3-0.3-0.3-0.7,0-0.9l2.9-2.9l-2.9-2.9c-0.3-0.3-0.3-0.7,0-0.9l1.2-1.2c0.2-0.3,0.7-0.3,0.9,0l2.9,2.9l2.9-2.9
			c0.3-0.3,0.7-0.3,0.9,0l1.2,1.2c0.3,0.2,0.3,0.7,0,0.9l-2.9,2.9l2.9,2.9C116.8,331.6,116.8,332,116.6,332.2z"/>
	</g>
</g>
<g>
	<g>
		<g>
			<path class="st0" d="M32.6,315.7l10.7-9.1c2.6-2.2,2.5-6.5-0.1-9.6c-2.6-3.1-6.9-3.8-9.4-1.6L23,304.5c-2.6,2.2-2.5,6.5,0.1,9.6
				C25.8,317.2,30,317.9,32.6,315.7z M27.2,305.8l7.1-6.1c1.7-1.5,4.2-1.4,5.5,0.2c1.3,1.6,1,4-0.7,5.5l-7.1,6.1
				c-1.7,1.5-4.2,1.4-5.5-0.2C25.2,309.7,25.5,307.2,27.2,305.8z"/>
		</g>
		<g>
			<path class="st0" d="M11.4,333.8l10.7-9.1c2.6-2.2,2.5-6.5-0.1-9.6c-2.6-3.1-6.9-3.8-9.4-1.6l-10.7,9.1c-2.6,2.2-2.5,6.5,0.1,9.6
				C4.7,335.2,8.9,336,11.4,333.8z M6.1,323.8l7.1-6.1c1.7-1.5,4.2-1.4,5.5,0.2c1.3,1.6,1,4-0.7,5.5l-7.1,6.1
				c-1.7,1.5-4.2,1.4-5.5-0.2C4.1,327.7,4.4,325.3,6.1,323.8z"/>
		</g>
		<g>
			<path class="st0" d="M13.4,322.2c-1-1.2-0.7-3.2,0.7-4.4l13.4-11.5c1.4-1.2,3.4-1.2,4.5,0l0,0c1,1.2,0.7,3.2-0.7,4.4l-13.4,11.5
				C16.4,323.4,14.4,323.4,13.4,322.2L13.4,322.2z"/>
		</g>
	</g>
	<g>
		<path class="st0" d="M38.6,319c-5.2,0-9.4,4.2-9.4,9.4c0,5.2,4.2,9.4,9.4,9.4c5.2,0,9.4-4.2,9.4-9.4C48,323.3,43.8,319,38.6,319z
			 M44.8,329.3c0,0.4-0.3,0.6-0.6,0.6H33c-0.4,0-0.6-0.3-0.6-0.6v-1.7c0-0.4,0.3-0.6,0.6-0.6h11.1c0.4,0,0.6,0.3,0.6,0.6V329.3z"/>
	</g>
</g>
<g>
	<g>
		<g>
			<path class="st0" d="M178.6,315.7l10.7-9.1c2.6-2.2,2.5-6.5-0.1-9.6c-2.6-3.1-6.9-3.8-9.4-1.6l-10.7,9.1
				c-2.6,2.2-2.5,6.5,0.1,9.6C171.8,317.2,176,317.9,178.6,315.7z M173.2,305.8l7.1-6.1c1.7-1.5,4.2-1.4,5.5,0.2
				c1.3,1.6,1,4-0.7,5.5l-7.1,6.1c-1.7,1.5-4.2,1.4-5.5-0.2C171.2,309.7,171.5,307.2,173.2,305.8z"/>
		</g>
		<g>
			<path class="st0" d="M157.4,333.8l10.7-9.1c2.6-2.2,2.5-6.5-0.1-9.6c-2.6-3.1-6.9-3.8-9.4-1.6l-10.7,9.1
				c-2.6,2.2-2.5,6.5,0.1,9.6C150.7,335.2,154.9,336,157.4,333.8z M152.1,323.8l7.1-6.1c1.7-1.5,4.2-1.4,5.5,0.2
				c1.3,1.6,1,4-0.7,5.5l-7.1,6.1c-1.7,1.5-4.2,1.4-5.5-0.2C150.1,327.7,150.4,325.3,152.1,323.8z"/>
		</g>
		<g>
			<path class="st0" d="M159.4,322.2c-1-1.2-0.7-3.2,0.7-4.4l13.4-11.5c1.4-1.2,3.4-1.2,4.5,0l0,0c1,1.2,0.7,3.2-0.7,4.4l-13.4,11.5
				C162.4,323.4,160.4,323.4,159.4,322.2L159.4,322.2z"/>
		</g>
	</g>
	<g>
		<path class="st0" d="M184.6,319c-5.2,0-9.4,4.2-9.4,9.4c0,5.2,4.2,9.4,9.4,9.4c5.2,0,9.4-4.2,9.4-9.4
			C194,323.3,189.8,319,184.6,319z M190.6,325.9l-7.2,7.2c-0.3,0.3-0.7,0.3-0.9,0l-3.9-3.9c-0.3-0.3-0.3-0.7,0-0.9l1.1-1.1
			c0.3-0.3,0.7-0.3,0.9,0l2.3,2.3l5.6-5.6c0.3-0.3,0.7-0.3,0.9,0l1.1,1.1C190.9,325.2,190.9,325.6,190.6,325.9z"/>
	</g>
</g>
<g>
	<g>
		<g>
			<path class="st0" d="M251.6,315.7l10.7-9.1c2.6-2.2,2.5-6.5-0.1-9.6c-2.6-3.1-6.9-3.8-9.4-1.6l-10.7,9.1
				c-2.6,2.2-2.5,6.5,0.1,9.6C244.8,317.2,249,317.9,251.6,315.7z M246.2,305.8l7.1-6.1c1.7-1.5,4.2-1.4,5.5,0.2
				c1.3,1.6,1,4-0.7,5.5l-7.1,6.1c-1.7,1.5-4.2,1.4-5.5-0.2C244.2,309.7,244.5,307.2,246.2,305.8z"/>
		</g>
		<g>
			<path class="st0" d="M230.4,333.8l10.7-9.1c2.6-2.2,2.5-6.5-0.1-9.6c-2.6-3.1-6.9-3.8-9.4-1.6l-10.7,9.1
				c-2.6,2.2-2.5,6.5,0.1,9.6C223.7,335.2,227.9,336,230.4,333.8z M225.1,323.8l7.1-6.1c1.7-1.5,4.2-1.4,5.5,0.2
				c1.3,1.6,1,4-0.7,5.5l-7.1,6.1c-1.7,1.5-4.2,1.4-5.5-0.2C223.1,327.7,223.4,325.3,225.1,323.8z"/>
		</g>
		<g>
			<path class="st0" d="M232.4,322.2c-1-1.2-0.7-3.2,0.7-4.4l13.4-11.5c1.4-1.2,3.4-1.2,4.5,0l0,0c1,1.2,0.7,3.2-0.7,4.4l-13.4,11.5
				C235.4,323.4,233.4,323.4,232.4,322.2L232.4,322.2z"/>
		</g>
	</g>
	<g>
		<g>
			<ellipse transform="matrix(0.707 -0.7072 0.7072 0.707 -156.27 277.0881)" class="st0" cx="256.3" cy="327.1" rx="3" ry="3"/>
		</g>
		<g>
			<path class="st0" d="M257.6,319c-5.2,0-9.4,4.2-9.4,9.4c0,5.2,4.2,9.4,9.4,9.4c5.2,0,9.4-4.2,9.4-9.4
				C267,323.3,262.8,319,257.6,319z M263.6,333.7l-0.7,0.7c-0.2,0.2-0.6,0.2-0.9,0l-3.1-3.1c-1.9,1.2-4.4,0.9-6-0.7
				c-1.9-1.9-1.9-5,0-7c1.9-1.9,5-1.9,7,0c1.6,1.6,1.9,4.1,0.7,6l3.1,3.1C263.9,333.1,263.9,333.5,263.6,333.7z"/>
		</g>
	</g>
</g>
<g>
	<g>
		<path class="st0" d="M598.2,313.1v-7.6c0-5.4,4.4-9.8,9.8-9.8c5.4,0,9.8,4.4,9.8,9.8v7.6h3.6v-7.6c0-7.4-6-13.4-13.4-13.4
			c-7.4,0-13.4,6-13.4,13.4v7.6H598.2z"/>
	</g>
	<g>
		<path class="st0" d="M622,310.3h-28c-3.1,0-5.6,2.4-5.6,5.4v18.8c0,3,2.5,5.4,5.6,5.4h28c3.1,0,5.6-2.4,5.6-5.4v-18.8
			C627.6,312.8,625.1,310.3,622,310.3z M609.7,325.9v5h-3.3v-5c-1-0.6-1.7-1.7-1.7-3c0-1.9,1.5-3.4,3.4-3.4c1.9,0,3.4,1.5,3.4,3.4
			C611.4,324.2,610.7,325.3,609.7,325.9z"/>
	</g>
</g>
<g>
	<g>
		<path class="st0" d="M321.9,310.3V336h-25.7v-25.7H321.9 M325.4,306.3h-32.7c-0.3,0-0.5,0.2-0.5,0.5v32.7c0,0.3,0.2,0.5,0.5,0.5
			h32.7c0.3,0,0.5-0.2,0.5-0.5v-32.7C325.9,306.5,325.7,306.3,325.4,306.3L325.4,306.3z"/>
	</g>
	<g>
		<path class="st0" d="M335.8,296v25.7h-25.7V296H335.8 M339.3,292h-32.7c-0.3,0-0.5,0.2-0.5,0.5v32.7c0,0.3,0.2,0.5,0.5,0.5h32.7
			c0.3,0,0.5-0.2,0.5-0.5v-32.7C339.8,292.2,339.6,292,339.3,292L339.3,292z"/>
	</g>
</g>
<g>
	<g>
		<path class="st0" d="M408.8,296v25.7h-25.7V296H408.8 M412.3,292h-32.7c-0.3,0-0.5,0.2-0.5,0.5v32.7c0,0.3,0.2,0.5,0.5,0.5h32.7
			c0.3,0,0.5-0.2,0.5-0.5v-32.7C412.8,292.2,412.6,292,412.3,292L412.3,292z"/>
	</g>
	<g>
		<g>
			<g>
				<path class="st0" d="M400.5,305.5c0.2,0.2,0.2,0.5,0,0.7l-8,8c-0.2,0.2-0.5,0.2-0.7,0l-1.3-1.3c-0.2-0.2-0.2-0.5,0-0.7l8-8
					c0.2-0.2,0.5-0.2,0.7,0L400.5,305.5z"/>
			</g>
		</g>
		<g>
			<g>
				<path class="st0" d="M392.3,298.1c-0.2-0.2-0.1-0.4,0.1-0.4l14.1,0c0.3,0,0.5,0.2,0.5,0.5l0,14.1c0,0.3-0.2,0.3-0.4,0.1
					L392.3,298.1z"/>
			</g>
		</g>
	</g>
	<g>
		<path class="st0" d="M394.9,323.3V336h-25.7v-25.7h11.3v-4h-14.8c-0.3,0-0.5,0.2-0.5,0.5v32.7c0,0.3,0.2,0.5,0.5,0.5h32.7
			c0.3,0,0.5-0.2,0.5-0.5v-16.2H394.9z"/>
	</g>
</g>
<g>
	<g>
		<g>
			<g>
				<path class="st0" d="M551.3,300.9c0.2,0.2,0.2,0.6,0,0.8l-9.1,9.1c-0.2,0.2-0.6,0.2-0.8,0l-1.5-1.5c-0.2-0.2-0.2-0.6,0-0.8
					l9.1-9.1c0.2-0.2,0.6-0.2,0.8,0L551.3,300.9z"/>
			</g>
		</g>
		<g>
			<g>
				<path class="st0" d="M542,292.4c-0.2-0.2-0.1-0.4,0.2-0.4l16,0c0.3,0,0.6,0.3,0.6,0.6l0,16c0,0.3-0.2,0.4-0.4,0.2L542,292.4z"/>
			</g>
		</g>
	</g>
	<g>
		<path class="st0" d="M545,313.6C545,313.6,545,313.6,545,313.6l0,21.9h-29.2v-29.2h20.9c0.1-0.2,0.3-0.4,0.5-0.6l4-4h-29.3
			c-0.3,0-0.6,0.3-0.6,0.6v37.2c0,0.3,0.3,0.6,0.6,0.6H549c0.3,0,0.6-0.3,0.6-0.6v-30.4L545,313.6z"/>
	</g>
</g>
<g>
	<g>
		<path class="st0" d="M481.8,296v25.7h-25.7V296H481.8 M485.3,292h-32.7c-0.3,0-0.5,0.2-0.5,0.5v32.7c0,0.3,0.2,0.5,0.5,0.5h32.7
			c0.3,0,0.5-0.2,0.5-0.5v-32.7C485.8,292.2,485.6,292,485.3,292L485.3,292z"/>
	</g>
	<g>
		<path class="st0" d="M467.9,323.3V336h-25.7v-25.7h11.3v-4h-14.8c-0.3,0-0.5,0.2-0.5,0.5v32.7c0,0.3,0.2,0.5,0.5,0.5h32.7
			c0.3,0,0.5-0.2,0.5-0.5v-16.2H467.9z"/>
	</g>
	<g>
		<rect x="453.2" y="293.3" class="st0" width="31" height="9.5"/>
	</g>
</g>
<g>
	<g>
		<path class="st0" d="M608.1,367.8l15.6,5.5v7.5v1.9v5.6c0,0.4,0,1.2-0.1,1.6c-0.1,1.1-0.5,4.3-1.1,6.2c-0.7,2.1-1.7,4.2-2.8,6.1
			c-1.3,2-2.8,3.8-4.3,5.2c-1.6,1.4-4.2,3.1-7.3,3.1c-3.2,0-6-1.9-7.7-3.5c-1.7-1.6-3.3-3.6-4.6-6c-1.1-1.9-1.9-4-2.5-6
			c-0.5-1.6-0.7-4.2-0.8-5.1c0-0.4-0.1-1.2-0.1-1.6v-7.4V379v-5.7L608.1,367.8 M608.1,365l-17.4,6.1c-0.5,0-0.9,0.4-0.9,0.9v6.9
			c0,0.5,0,1.3,0,1.9v7.4c0,0.5,0,1.3,0.1,1.8c0,0,0.3,3.4,0.9,5.6c0.6,2.2,1.6,4.5,2.7,6.5c1.4,2.5,3.1,4.8,5.1,6.6
			c2.8,2.5,6,4.2,9.5,4.2c3.3,0,6.3-1.4,9-3.7c1.8-1.6,3.5-3.6,4.9-5.8c1.3-2.1,2.4-4.4,3.1-6.7c0.9-2.6,1.2-6.7,1.2-6.7
			c0-0.5,0.1-1.3,0.1-1.8v-5.6c0-0.5,0-1.3,0-1.9V372c0-0.5-0.4-0.9-0.9-0.9L608.1,365L608.1,365z"/>
	</g>
	<g>
		<g>
			<path class="st0" d="M590.2,372.4v6.8c0,0.5,0,1.3,0,1.8v7h17.9v-22.5l-17,6C590.6,371.5,590.2,371.9,590.2,372.4z"/>
		</g>
		<g>
			<path class="st0" d="M607.9,387.8v24.6c0,0,0,0,0.1,0c3.2,0,6.2-1.4,8.8-3.6c1.8-1.5,3.4-3.5,4.7-5.7c1.3-2,2.3-4.3,3-6.5
				c0.8-2.5,1.2-6.6,1.2-6.6c0-0.5,0.1-1.3,0.1-1.8v-0.4H607.9z"/>
		</g>
	</g>
</g>
<g>
	<g>
		<path class="st0" d="M-58.8,386.1v-7.6c0-5.4,4.4-9.8,9.8-9.8c5.4,0,9.8,4.4,9.8,9.8v7.6h3.6v-7.6c0-7.4-6-13.4-13.4-13.4
			c-7.4,0-13.4,6-13.4,13.4v7.6H-58.8z"/>
	</g>
	<g>
		<path class="st0" d="M-35,383.3h-28c-3.1,0-5.6,2.4-5.6,5.4v18.8c0,3,2.5,5.4,5.6,5.4h28c3.1,0,5.6-2.4,5.6-5.4v-18.8
			C-29.4,385.8-31.9,383.3-35,383.3z"/>
	</g>
</g>
<g>
	<g>
		<path class="st0" d="M38,383.3H10c-3.1,0-5.6,2.4-5.6,5.4v18.8c0,3,2.5,5.4,5.6,5.4h28c3.1,0,5.6-2.4,5.6-5.4v-18.8
			C43.6,385.8,41.1,383.3,38,383.3z M25.7,398.9v5h-3.3v-5c-1-0.6-1.7-1.7-1.7-3c0-1.9,1.5-3.4,3.4-3.4c1.9,0,3.4,1.5,3.4,3.4
			C27.4,397.2,26.7,398.3,25.7,398.9z"/>
	</g>
	<g>
		<path class="st0" d="M33.4,375.9c0.1,0.5,0.7,0.9,1.3,0.8l1.6-0.2c0.5-0.1,0.9-0.6,0.8-1.1c0,0-0.5-1.9-1.1-3.2
			c-1.2-2.4-3.2-4.3-5.5-5.6c-1.9-1-4.1-1.6-6.4-1.6c-2,0-3.8,0.4-5.5,1.2c-2.1,0.9-3.9,2.4-5.3,4.2c-0.8,1-1.4,2.2-1.9,3.5
			c-0.5,1.4-0.7,3.6-0.7,3.6c0,0.5-0.1,1.4-0.1,2v5.6c0,0.6,0.5,1,1,1h1.6c0.5,0,1-0.4,1-1V383c0-0.5,0-1.4,0-2v-1.5
			c0-0.5,0-1.4,0.1-2c0,0,0.1-1.2,0.5-2.2c0.5-1.3,1.2-2.5,2.1-3.5c1.1-1.1,2.4-2,3.9-2.5c1-0.4,2.1-0.6,3.3-0.6
			c1.8,0,3.4,0.5,4.8,1.3c1.4,0.8,2.6,2,3.5,3.4C33,374.4,33.4,375.9,33.4,375.9z"/>
	</g>
</g>
<g>
	<g>
		<path class="st0" d="M106.4,375.9c0.1,0.5,0.7,0.9,1.3,0.8l1.6-0.2c0.5-0.1,0.9-0.6,0.8-1.1c0,0-0.5-1.9-1.1-3.2
			c-1.2-2.4-3.2-4.3-5.5-5.6c-1.9-1-4.1-1.6-6.4-1.6c-2,0-3.8,0.4-5.5,1.2c-2.1,0.9-3.9,2.4-5.3,4.2c-0.8,1-1.4,2.2-1.9,3.5
			c-0.5,1.4-0.7,3.6-0.7,3.6c0,0.5-0.1,1.4-0.1,2v5.6c0,0.6,0.5,1,1,1h1.6c0.5,0,1-0.4,1-1V383c0-0.5,0-1.4,0-2v-1.5
			c0-0.5,0-1.4,0.1-2c0,0,0.1-1.2,0.5-2.2c0.5-1.3,1.2-2.5,2.1-3.5c1.1-1.1,2.4-2,3.9-2.5c1-0.4,2.1-0.6,3.3-0.6
			c1.8,0,3.4,0.5,4.8,1.3c1.4,0.8,2.6,2,3.5,3.4C106,374.4,106.4,375.9,106.4,375.9z"/>
	</g>
	<g>
		<path class="st0" d="M111,383.3H83c-3.1,0-5.6,2.4-5.6,5.4v18.8c0,3,2.5,5.4,5.6,5.4h28c3.1,0,5.6-2.4,5.6-5.4v-18.8
			C116.6,385.8,114.1,383.3,111,383.3z"/>
	</g>
</g>
<g>
	<g>
		<path class="st0" d="M160.2,386.1v-7.6c0-5.4,4.4-9.8,9.8-9.8c5.4,0,9.8,4.4,9.8,9.8v7.6h3.6v-7.6c0-7.4-6-13.4-13.4-13.4
			c-7.4,0-13.4,6-13.4,13.4v7.6H160.2z"/>
	</g>
	<g>
		<path class="st0" d="M184,383.3h-28c-3.1,0-5.6,2.4-5.6,5.4v18.8c0,3,2.5,5.4,5.6,5.4h28c3.1,0,5.6-2.4,5.6-5.4v-18.8
			C189.6,385.8,187.1,383.3,184,383.3z M155.3,407.2h-3.5L155,397h3.5L155.3,407.2z M162.7,407.2h-3.5l3.2-10.3h3.5L162.7,407.2z
			 M170.1,407.2h-3.5l3.2-10.3h3.5L170.1,407.2z M177.6,407.2h-3.5l3.2-10.3h3.5L177.6,407.2z M185,407.2h-3.5l3.2-10.3h3.5
			L185,407.2z"/>
	</g>
</g>
<g>
	<g>
		<path class="st0" d="M233.2,386.1v-7.6c0-5.4,4.4-9.8,9.8-9.8c5.4,0,9.8,4.4,9.8,9.8v7.6h3.6v-7.6c0-7.4-6-13.4-13.4-13.4
			c-7.4,0-13.4,6-13.4,13.4v7.6H233.2z"/>
	</g>
	<g>
		<path class="st0" d="M257,383.3h-28c-3.1,0-5.6,2.4-5.6,5.4v18.8c0,3,2.5,5.4,5.6,5.4h28c3.1,0,5.6-2.4,5.6-5.4v-18.8
			C262.6,385.8,260.1,383.3,257,383.3z M252,400.2c0,0.3-0.2,0.5-0.5,0.5h-6.8v6.8c0,0.3-0.2,0.5-0.5,0.5h-2.3
			c-0.3,0-0.5-0.2-0.5-0.5v-6.8h-6.8c-0.3,0-0.5-0.2-0.5-0.5l0-2.3c0-0.3,0.2-0.5,0.5-0.5h6.8v-6.8c0-0.3,0.2-0.5,0.5-0.5h2.3
			c0.3,0,0.5,0.2,0.5,0.5v6.8l6.8,0c0.3,0,0.5,0.2,0.5,0.5V400.2z"/>
	</g>
</g>
<g>
	<g>
		<path class="st0" d="M379.2,386.1v-7.6c0-5.4,4.4-9.8,9.8-9.8c5.4,0,9.8,4.4,9.8,9.8v7.6h3.6v-7.6c0-7.4-6-13.4-13.4-13.4
			c-7.4,0-13.4,6-13.4,13.4v7.6H379.2z"/>
	</g>
	<g>
		<path class="st0" d="M403,383.3h-28c-3.1,0-5.6,2.4-5.6,5.4v18.8c0,3,2.5,5.4,5.6,5.4h28c3.1,0,5.6-2.4,5.6-5.4v-18.8
			C408.6,385.8,406.1,383.3,403,383.3z M396.2,405.2l-1.6,1.6c-0.2,0.2-0.5,0.2-0.7,0L389,402l-4.8,4.8c-0.2,0.2-0.5,0.2-0.7,0
			l-1.6-1.6c-0.2-0.2-0.2-0.5,0-0.7l4.8-4.8l-4.8-4.8c-0.2-0.2-0.2-0.5,0-0.7l1.6-1.6c0.2-0.2,0.5-0.2,0.7,0l4.8,4.8l4.8-4.8
			c0.2-0.2,0.5-0.2,0.7,0l1.6,1.6c0.2,0.2,0.2,0.5,0,0.7l-4.8,4.8l4.8,4.8C396.4,404.7,396.4,405,396.2,405.2z"/>
	</g>
</g>
<g>
	<g>
		<path class="st0" d="M306.2,386.1v-7.6c0-5.4,4.4-9.8,9.8-9.8c5.4,0,9.8,4.4,9.8,9.8v7.6h3.6v-7.6c0-7.4-6-13.4-13.4-13.4
			c-7.4,0-13.4,6-13.4,13.4v7.6H306.2z"/>
	</g>
	<g>
		<path class="st0" d="M330,383.3h-28c-3.1,0-5.6,2.4-5.6,5.4v18.8c0,3,2.5,5.4,5.6,5.4h28c3.1,0,5.6-2.4,5.6-5.4v-18.8
			C335.6,385.8,333.1,383.3,330,383.3z M324.8,395.4l-8.8,8.8l-1.7,1.7c-0.2,0.2-0.5,0.2-0.7,0l-6.5-6.5c-0.2-0.2-0.2-0.5,0-0.7
			l1.7-1.7c0.2-0.2,0.5-0.2,0.7,0l4.5,4.5l8.4-8.4c0.2-0.2,0.5-0.2,0.7,0l1.7,1.7C325,394.9,325,395.2,324.8,395.4z"/>
	</g>
</g>
<g>
	<path class="st0" d="M481.9,365h-39.8c-0.6,0-1.1,0.5-1.1,1.1v8c0,0.6,0,1.5,0,2.1v8.5c0,0.6,0,1.5,0.1,2.1c0,0,0.3,3.9,1,6.4
		c0.7,2.6,1.8,5.1,3.1,7.5c1.6,2.9,3.6,5.5,5.9,7.6c3.2,2.9,6.9,4.8,10.9,4.8c3.7,0,7.3-1.6,10.3-4.3c2.1-1.8,4-4.1,5.6-6.6
		c1.5-2.4,2.7-5,3.6-7.6c1-3,1.4-7.7,1.4-7.7c0.1-0.6,0.1-1.5,0.1-2.1v-6.4c0-0.6,0-1.5,0-2.1v-10.1C483,365.5,482.5,365,481.9,365z
		 M447.9,399.2c-1.2-2.2-2.2-4.5-2.9-6.9c-0.5-1.9-0.9-4.8-0.9-5.8c0-0.5-0.1-1.4-0.1-1.9v-8.5V374v-6h17.7v42
		c-3.6-0.1-6.6-2.2-8.6-4C451.2,404.2,449.4,401.9,447.9,399.2z"/>
</g>
<g>
	<g>
		<path class="st0" d="M550.5,369.7l-15.6-4.7l-15.3,4.7c-2.3,0.4-4,2.4-4,4.8v13.7c0,0.5,0,1.3,0.1,1.9c0,0.3,0.3,3.3,0.9,5.5
			c0.6,2.2,1.5,4.3,2.7,6.4c1.4,2.5,3.2,4.8,5.1,6.6c3.3,3,7,4.6,10.7,4.6c3.6,0,7.1-1.4,10.2-4.1c1.8-1.6,3.5-3.5,4.9-5.8
			c1.3-2,2.3-4.2,3-6.5c0.8-2.6,1.2-6.2,1.2-6.6c0.1-0.5,0.1-1.4,0.1-1.9v-13.7C554.5,372,552.7,370.1,550.5,369.7z M552.3,388.1
			c0,0.5,0,1.2-0.1,1.7c0,0.1-0.4,3.7-1.1,6.1c-0.7,2.1-1.6,4.1-2.8,6c-1.3,2.1-2.8,3.9-4.5,5.3c-2.7,2.3-5.8,3.6-8.8,3.6
			c-3.2,0-6.4-1.4-9.2-4c-1.8-1.6-3.4-3.7-4.7-6c-1.1-1.9-1.9-3.9-2.5-5.9c-0.6-2-0.8-5-0.8-5.1c0-0.5-0.1-1.2-0.1-1.7v-13.7
			c0-1.3,1-2.4,2.3-2.6l14.9-4.5l15.1,4.5c1.3,0.2,2.3,1.3,2.3,2.6V388.1z"/>
	</g>
	<g>
		<path class="st0" d="M549.6,373.6l-14.8-4.4l-14.5,4.4c-0.4,0-0.8,0.4-0.8,0.8v5.9c0,0.4,0,1.1,0,1.6v6.2c0,0.4,0,1.1,0.1,1.6
			c0,0,0.2,2.8,0.8,4.7c0.5,1.9,1.3,3.8,2.3,5.5c1.2,2.1,2.6,4,4.3,5.6c2.3,2.1,5.1,3.5,8,3.5c2.8,0,5.3-1.2,7.6-3.1
			c1.6-1.3,2.9-3,4.1-4.9c1.1-1.8,2-3.7,2.6-5.6c0.7-2.2,1-5.7,1-5.7c0-0.4,0.1-1.1,0.1-1.6v-4.7c0-0.4,0-1.1,0-1.6v-7.4
			C550.4,374,550.1,373.6,549.6,373.6z M545.6,386.1l-4.2,4.1c-0.4,0.4-0.6,1.1-0.5,1.7l1,5.8c0.1,0.5-0.2,0.8-0.7,0.5l-5.2-2.8
			c-0.5-0.3-1.3-0.3-1.8,0l-5.2,2.8c-0.5,0.3-0.8,0-0.7-0.5l1-5.8c0.1-0.5-0.2-1.3-0.5-1.7l-4.2-4.1c-0.4-0.4-0.3-0.8,0.3-0.8
			l5.9-0.9c0.5-0.1,1.2-0.5,1.4-1l2.6-5.3c0.2-0.5,0.6-0.5,0.9,0l2.6,5.3c0.2,0.5,0.9,1,1.4,1l5.9,0.9
			C545.9,385.3,546,385.7,545.6,386.1z"/>
	</g>
</g>
<g>
	<g>
		<path class="st0" d="M-32.4,443.8l-16.5-5.8l-16.7,5.8c-1.1,0.1-2,1.1-2,2.3v15.2c0,0.5,0,1.3,0.1,1.8c0,0.1,0.3,3.3,0.9,5.5
			c0.6,2.2,1.5,4.4,2.7,6.4c1.4,2.5,3.2,4.8,5.1,6.6c3,2.8,6.5,4.3,9.9,4.3c3.2,0,6.4-1.3,9.4-3.8c1.8-1.5,3.4-3.5,4.8-5.8
			c1.3-2,2.3-4.3,3.1-6.6c0.8-2.6,1.2-6.5,1.2-6.6c0-0.5,0.1-1.3,0.1-1.9v-15.2C-30.4,444.9-31.3,444-32.4,443.8z M-33.2,461.3
			c0,0.4,0,1.2-0.1,1.6c0,0-0.4,3.8-1.1,6c-0.7,2.1-1.6,4.1-2.8,6c-1.3,2-2.7,3.8-4.3,5.1c-2.4,2.1-5,3.2-7.5,3.2
			c-2.7,0-5.4-1.2-7.9-3.5c-1.7-1.5-3.2-3.6-4.5-5.9c-1-1.9-1.9-3.8-2.4-5.9c-0.5-1.9-0.8-5-0.8-5c0-0.4-0.1-1.2-0.1-1.6v-14.8
			l15.8-5.5l15.7,5.5V461.3z"/>
	</g>
	<g>
		<path class="st0" d="M-49.4,451l-2.7,5.4c-0.2,0.5-0.8,0.9-1.3,1l-6,0.9c-0.5,0.1-0.6,0.4-0.3,0.8l4.3,4.2
			c0.4,0.4,0.6,1.1,0.5,1.6l-1,6c-0.1,0.5,0.2,0.7,0.7,0.5l5.4-2.8c0.5-0.2,1.2-0.2,1.7,0l5.4,2.8c0.5,0.2,0.8,0,0.7-0.5l-1-6
			c-0.1-0.5,0.1-1.2,0.5-1.6l4.3-4.2c0.4-0.4,0.3-0.7-0.3-0.8l-6-0.9c-0.5-0.1-1.1-0.5-1.3-1l-2.7-5.4
			C-48.8,450.6-49.2,450.6-49.4,451z"/>
	</g>
</g>
<g>
	<g>
		<path class="st0" d="M40.6,443.8L24.1,438l-16.7,5.8C6,444,5,445.1,5,446.5v14.9c0,0.5,0,1.3,0.1,1.8c0,0,0.3,3.3,0.9,5.5
			c0.6,2.2,1.6,4.4,2.7,6.4c1.4,2.5,3.2,4.8,5.2,6.5c3.1,2.8,6.6,4.3,10.1,4.3c3.3,0,6.6-1.3,9.6-3.9c1.8-1.5,3.5-3.5,4.9-5.8
			c1.3-2,2.3-4.3,3.1-6.5c0.9-2.6,1.2-6.4,1.2-6.6c0.1-0.5,0.1-1.3,0.1-1.9v-14.9C43,445.1,42,444,40.6,443.8z M12,473.3
			c-1-1.8-1.8-3.7-2.4-5.6c-0.5-1.8-0.8-4.8-0.8-4.8c0-0.4-0.1-1.1-0.1-1.6v-14.1l11.5-4v38.2c-1.3-0.6-2.7-1.4-3.9-2.6
			C14.8,477.5,13.3,475.5,12,473.3z M39.2,461.4c0,0.4,0,1.1-0.1,1.5c0,0-0.3,3.6-1.1,5.8c-0.7,2-1.6,4-2.7,5.7
			c-1.2,2-2.6,3.6-4.2,4.9c-1.1,1-2.3,1.7-3.5,2.2v-38.3l11.5,4V461.4z"/>
	</g>
</g>
<g>
	<g>
		<path class="st0" d="M113.6,443.8L97.1,438l-16.7,5.8c-1.3,0.2-2.4,1.3-2.4,2.7v14.9c0,0.5,0,1.3,0.1,1.8c0,0,0.3,3.3,0.9,5.5
			c0.6,2.2,1.6,4.4,2.7,6.4c1.4,2.5,3.2,4.8,5.2,6.5c3.1,2.8,6.6,4.3,10.1,4.3c3.3,0,6.6-1.3,9.6-3.9c1.8-1.5,3.5-3.5,4.9-5.8
			c1.3-2,2.3-4.3,3.1-6.5c0.9-2.6,1.2-6.4,1.2-6.6c0-0.5,0.1-1.3,0.1-1.9v-14.9C116,445.1,115,444,113.6,443.8z M104.2,479.3
			c-2.3,1.9-4.8,3-7.2,3c-2.5,0-5.2-1.2-7.6-3.3c-1.6-1.5-3.2-3.4-4.4-5.6c-1-1.8-1.8-3.7-2.4-5.6c-0.5-1.8-0.8-4.8-0.8-4.8
			c0-0.4-0.1-1.1-0.1-1.6v-14.1l15.3-5.3l15.1,5.3v14.1c0,0.4,0,1.1-0.1,1.5c0,0-0.3,3.6-1.1,5.8c-0.7,2-1.6,4-2.7,5.7
			C107.1,476.3,105.7,478,104.2,479.3z"/>
	</g>
	<g>
		<rect x="93.5" y="440.2" class="st0" width="7" height="44"/>
	</g>
	<g>
		<rect x="79.9" y="455.2" class="st0" width="34.6" height="6.9"/>
	</g>
</g>
<g>
	<path class="st0" d="M170,443.4c-5.2,0-10.1-1.2-14.5-3.4c-1.5-0.7-3.2-1.8-3.2-1.8c-0.6-0.4-1.3,0-1.4,0.8c0,0-0.7,3.6-0.9,6.3
		c-0.1,1.2-0.1,2.4-0.1,3.6c0,5.8,1,11.2,2.8,16.2c2.2,6.1,5.6,11.4,9.8,15.6c2.3,2.3,6.6,5.1,6.6,5.1c0.6,0.4,1.6,0.4,2.2,0
		c0,0,5.8-3.9,8.6-7.2c4-4.6,7-10.3,8.8-16.7c1.1-4.1,1.8-8.5,1.8-13c0-1.8-0.1-3.7-0.3-5.4c-0.2-2-0.8-4.5-0.8-4.5
		c-0.2-0.8-0.8-1.1-1.4-0.8c0,0-2.2,1.3-3.9,2.1C179.6,442.3,174.9,443.4,170,443.4z"/>
</g>
<g>
	<path class="st0" d="M328.2,443.2c-3.1,0-5.9-0.9-8.4-2.6c-1.4-0.9-2.6-2.2-2.6-2.2c-0.6-0.6-1.7-0.6-2.3,0c0,0-0.8,0.9-2,1.7
		c-2.7,1.9-5.8,3.1-9.1,3.1c-1.1,0-2.1-0.1-3.1-0.3c-2.2-0.5-4.8-2-4.8-2c-0.8-0.5-1.5-0.1-1.5,0.8c0,0-0.2,2.2-0.2,4.1
		c0,0.3,0,0.7,0,1c0.1,3.2,0.4,6.4,1,9.4c0.7,3.4,1.7,6.7,3,9.8c1.4,3.3,3.1,6.4,5.1,9.1c1.6,2.2,3.4,4.2,5.3,6c2.3,2.1,6,4.5,6,4.5
		c0.8,0.5,2,0.5,2.7,0c0,0,3.8-2.5,6.2-4.6c2-1.9,3.9-4,5.5-6.4c1.7-2.4,3.2-5.1,4.5-7.9c1.2-2.8,2.2-5.8,3-8.9
		c0.8-3.5,1.3-7.2,1.4-11.1c0-0.3,0-0.7,0-1c0-1.9-0.2-4.1-0.2-4.1c-0.1-0.9-0.8-1.2-1.5-0.8c0,0-2.2,1.3-4.2,1.9
		C330.8,443.1,329.5,443.2,328.2,443.2z"/>
</g>
<g>
	<g>
		<polygon class="st0" points="535,442.3 540,457.4 555.9,457.4 543,466.8 547.9,481.9 535,472.6 522.1,481.9 527,466.8 
			514.2,457.4 530.1,457.4 		"/>
	</g>
	<g>
		<circle class="st0" cx="555.7" cy="457.4" r="3.3"/>
	</g>
	<g>
		<circle class="st0" cx="535" cy="442.2" r="3.3"/>
	</g>
	<g>
		<circle class="st0" cx="522.2" cy="481.8" r="3.3"/>
	</g>
	<g>
		<circle class="st0" cx="547.9" cy="481.8" r="3.3"/>
	</g>
	<g>
		<circle class="st0" cx="514.3" cy="457.4" r="3.3"/>
	</g>
</g>
<g>
	<path class="st0" d="M483.7,441.6c-0.1-0.9-0.8-1.2-1.5-0.8c0,0-2.2,1.3-4.2,1.9c-1.2,0.3-2.5,0.5-3.8,0.5c-3.1,0-5.9-0.9-8.4-2.6
		c-1.4-0.9-2.6-2.2-2.6-2.2c-0.6-0.6-1.7-0.6-2.3,0c0,0-0.8,0.9-2,1.7c-2.7,1.9-5.8,3.1-9.1,3.1c-1.1,0-2.1-0.1-3.1-0.3
		c-2.2-0.5-4.8-2-4.8-2c-0.8-0.5-1.5-0.1-1.5,0.8c0,0-0.2,2.2-0.2,4.1c0,0.3,0,0.7,0,1c0.1,3.2,0.4,6.4,1,9.4c0.7,3.4,1.7,6.7,3,9.8
		c1.4,3.3,3.1,6.4,5.1,9.1c1.6,2.2,3.4,4.2,5.3,6c2.3,2.1,6,4.5,6,4.5c0.8,0.5,2,0.5,2.7,0c0,0,3.8-2.5,6.2-4.6c2-1.9,3.9-4,5.5-6.4
		c1.7-2.4,3.2-5.1,4.5-7.9c1.2-2.8,2.2-5.8,3-8.9c0.8-3.5,1.3-7.2,1.4-11.1c0-0.3,0-0.7,0-1C483.8,443.8,483.7,441.6,483.7,441.6z
		 M470.6,459.5c-0.4,0-0.8-0.2-1.1-0.5l-4.2,3.1l1.6,5c0.1,0,0.3-0.1,0.4-0.1c0.8,0,1.4,0.6,1.4,1.4c0,0.8-0.6,1.4-1.4,1.4
		c-0.8,0-1.4-0.6-1.4-1.4c0-0.3,0.1-0.6,0.2-0.8l-4.2-3.1l-4.2,3.1c0.2,0.2,0.2,0.5,0.2,0.8c0,0.8-0.6,1.4-1.4,1.4
		c-0.8,0-1.4-0.6-1.4-1.4c0-0.8,0.6-1.4,1.4-1.4c0.1,0,0.3,0,0.4,0.1l1.6-5l-4.2-3.1c-0.3,0.3-0.6,0.6-1.1,0.6
		c-0.8,0-1.4-0.6-1.4-1.4c0-0.8,0.6-1.4,1.4-1.4c0.8,0,1.4,0.6,1.4,1.4l5.2,0l1.6-5c-0.6-0.2-1-0.7-1-1.3c0-0.8,0.6-1.4,1.4-1.4
		c0.8,0,1.4,0.6,1.4,1.4c0,0.6-0.4,1.1-1,1.3l1.6,5l5.2,0c0-0.8,0.6-1.4,1.4-1.4c0.8,0,1.4,0.6,1.4,1.4
		C472,458.9,471.4,459.5,470.6,459.5z"/>
</g>
<g>
	<path class="st0" d="M608,438c-13.2,0-24,10.8-24,24c0,13.2,10.8,24,24,24c13.2,0,24-10.8,24-24C632,448.8,621.2,438,608,438z
		 M603.6,462l-10.1,10.1c-2.1-3-3.2-6.5-3.2-10.1c0-3.7,1.1-7.1,3.2-10.1L603.6,462z M608,457.6l-10.1-10.1c3-2.1,6.5-3.2,10.1-3.2
		c3.7,0,7.1,1.1,10.1,3.2L608,457.6z M608,466.4l10.1,10.1c-3,2.1-6.5,3.2-10.1,3.2c-3.7,0-7.1-1.1-10.1-3.2L608,466.4z M612.4,462
		l10.1-10.1c2.1,3,3.2,6.5,3.2,10.1c0,3.7-1.1,7.1-3.2,10.1L612.4,462z"/>
</g>
<g>
	<g>
		<path class="st0" d="M227.7,470l35.2-27.5c-0.3-1.8-0.6-3.6-0.6-3.6c-0.2-0.8-0.8-1.1-1.4-0.8c0,0-2.2,1.3-3.9,2.1
			c-4.3,2-9,3.1-13.9,3.1c-5.2,0-10.1-1.2-14.5-3.4c-1.5-0.7-3.2-1.8-3.2-1.8c-0.6-0.4-1.3,0-1.4,0.8c0,0-0.7,3.6-0.9,6.3
			c-0.1,1.2-0.1,2.4-0.1,3.6c0,5.8,1,11.2,2.8,16.2C226.1,466.7,226.9,468.4,227.7,470z"/>
	</g>
	<g>
		<path class="st0" d="M230.9,475.5c1.3,1.9,2.8,3.6,4.4,5.2c2.3,2.3,6.6,5.1,6.6,5.1c0.6,0.4,1.6,0.4,2.2,0c0,0,5.8-3.9,8.6-7.2
			c4-4.6,7-10.3,8.8-16.7c1-3.7,1.6-7.6,1.7-11.6L230.9,475.5z"/>
	</g>
</g>
<g>
	<g>
		<path class="st0" d="M393.1,455.6c0-2.3-1.8-4.1-4.1-4.1c-2.3,0-4.1,1.8-4.1,4.1v2h8.2V455.6z"/>
	</g>
	<g>
		<path class="st0" d="M410.7,441.6c-0.1-0.9-0.8-1.2-1.5-0.8c0,0-2.2,1.3-4.2,1.9c-1.2,0.3-2.5,0.5-3.8,0.5c-3.1,0-5.9-0.9-8.4-2.6
			c-1.4-0.9-2.6-2.2-2.6-2.2c-0.6-0.6-1.7-0.6-2.3,0c0,0-0.8,0.9-2,1.7c-2.7,1.9-5.8,3.1-9.1,3.1c-1.1,0-2.1-0.1-3.1-0.3
			c-2.2-0.5-4.8-2-4.8-2c-0.8-0.5-1.5-0.1-1.5,0.8c0,0-0.2,2.2-0.2,4.1c0,0.3,0,0.7,0,1c0.1,3.2,0.4,6.4,1,9.4
			c0.7,3.4,1.7,6.7,3,9.8c1.4,3.3,3.1,6.4,5.1,9.1c1.6,2.2,3.4,4.2,5.3,6c2.3,2.1,6,4.5,6,4.5c0.8,0.5,2,0.5,2.7,0
			c0,0,3.8-2.5,6.2-4.6c2-1.9,3.9-4,5.5-6.4c1.7-2.4,3.2-5.1,4.5-7.9c1.2-2.8,2.2-5.8,3-8.9c0.8-3.5,1.3-7.2,1.4-11.1
			c0-0.3,0-0.7,0-1C410.8,443.8,410.7,441.6,410.7,441.6z M397.2,467.7c0,1.2-1,2.3-2.3,2.3h-11.7c-1.3,0-2.3-1-2.3-2.3v-7.8
			c0-1.2,1-2.3,2.3-2.3h0.2v-2c0-3.1,2.5-5.6,5.6-5.6s5.6,2.5,5.6,5.6v2h0.2c1.3,0,2.3,1,2.3,2.3V467.7z"/>
	</g>
</g>
<g>
	<g>
		<path class="st0" d="M-36.3,535c0,2-0.5,3.8-1.3,5.5l8.3,8.3c2.7-3.9,4.3-8.6,4.3-13.7c0-5.1-1.6-9.8-4.3-13.7l-8.3,8.3
			C-36.8,531.2-36.3,533-36.3,535z"/>
	</g>
	<g>
		<path class="st0" d="M-54.5,523.6c1.7-0.8,3.5-1.3,5.5-1.3c2,0,3.8,0.5,5.5,1.3l8.3-8.3c-3.9-2.7-8.6-4.3-13.7-4.3
			c-5.1,0-9.8,1.6-13.7,4.3L-54.5,523.6z"/>
	</g>
	<g>
		<path class="st0" d="M-43.5,546.4c-1.7,0.8-3.5,1.3-5.5,1.3c-2,0-3.8-0.5-5.5-1.3l-8.3,8.3c3.9,2.7,8.6,4.3,13.7,4.3
			c5.1,0,9.8-1.6,13.7-4.3L-43.5,546.4z"/>
	</g>
	<g>
		<path class="st0" d="M-61.7,535c0-2,0.5-3.8,1.3-5.5l-8.3-8.3c-2.7,3.9-4.3,8.6-4.3,13.7c0,5.1,1.6,9.8,4.3,13.7l8.3-8.3
			C-61.2,538.8-61.7,537-61.7,535z"/>
	</g>
</g>
<g>
	<g>
		<path class="st0" d="M4.1,531.4c3.5,0,6.7,1.1,9.3,2.9c2.9-2.5,6.7-4,10.8-4c3.9,0,7.4,1.3,10.2,3.5c2.5-1.5,5.5-2.4,8.6-2.4
			c1.7,0,3.4,0.3,4.9,0.7c-2.5-10.9-12.3-19.1-24-19.1c-11.6,0-21.4,8-24,18.9C1.3,531.6,2.7,531.4,4.1,531.4z"/>
	</g>
	<g>
		<path class="st0" d="M22.6,522.3c-0.4,0-0.7,0.3-0.7,0.7v1.1c0,0.4,0,1.1,0,1.5V549c0,0.4,0,1.1,0,1.5v1.4c0,0.4,0,1-0.1,1.2
			c0,0,0,0-0.1,0.2c-0.1,0.2-0.2,0.4-0.4,0.6c-0.3,0.3-0.8,0.6-1.3,0.6s-1-0.2-1.3-0.6c-0.3-0.3-0.4-0.6-0.4-0.6
			c-0.1-0.4-0.2-1.1-0.2-1.5v-0.2c0-0.4-0.3-0.7-0.7-0.7h-2.6c-0.4,0-0.7,0.3-0.7,0.7v0.2c0,0.4,0,1.1,0.1,1.5c0,0,0.1,0.8,0.4,1.5
			c0.3,0.7,0.7,1.3,1.2,1.8c0.4,0.5,1,0.9,1.5,1.2c0.8,0.4,1.8,0.7,2.8,0.7c1.4,0,2.7-0.5,3.7-1.3c0.7-0.5,1.2-1.2,1.6-2
			c0.4-0.8,0.6-2,0.6-2c0-0.4,0.1-1.1,0.1-1.5v-1.2c0-0.4,0-1.1,0-1.5v-23.1c0-0.4,0-1.1,0-1.5v-1.6c0-0.4-0.3-0.7-0.7-0.7H22.6z"/>
	</g>
	<g>
		<circle class="st0" cx="24" cy="514.3" r="2.9"/>
	</g>
</g>
<g>
	<g>
		<path class="st0" d="M73.1,552.1c-0.1,0.1-0.1,0.3-0.1,0.4l1.5,4.8c0,0.1,0.2,0.2,0.3,0.3l4.8,1.5c0.1,0,0.3,0,0.4-0.1l0.5-0.5
			c0.1-0.1,0.1-0.3,0.1-0.4c0,0-0.6-1.9,0.2-2.7c0.8-0.8,2.7-0.2,2.7-0.2c0.1,0,0.3,0,0.4-0.1l0.3-0.3c0.1-0.1,0.1-0.3,0.1-0.4
			c0,0-0.6-1.9,0.2-2.7c0.8-0.8,2.7-0.2,2.7-0.2c0.1,0,0.3,0,0.4-0.1l0.3-0.3c0.1-0.1,0.1-0.3,0.1-0.4c0,0-0.6-1.9,0.2-2.7
			c0.8-0.8,2.7-0.2,2.7-0.2c0.1,0,0.3,0,0.4-0.1l11.5-11.5c0.1-0.1,0.1-0.2,0-0.3l-6.5-6.5c-0.1-0.1-0.2-0.1-0.3,0l-8.3,8.3
			L73.1,552.1z"/>
	</g>
	<g>
		<path class="st0" d="M116.9,515.1c-5.5-5.5-14.5-5.5-20,0c-5.5,5.5-5.5,14.5,0,20c5.5,5.5,14.5,5.5,20,0
			C122.4,529.6,122.4,520.7,116.9,515.1z M114.8,523.3c-1.7,1.7-4.4,1.7-6,0c-1.7-1.7-1.7-4.4,0-6c1.7-1.7,4.4-1.7,6,0
			C116.5,518.9,116.5,521.6,114.8,523.3z"/>
	</g>
</g>
<g>
	<g>
		<g>
			<path class="st0" d="M168.7,523c0,6.1,4.9,11.1,11.1,11.1c6.1,0,11.1-5,11.1-11.1c0-6.1-5-11.1-11.1-11.1
				C173.6,512,168.7,516.9,168.7,523z M179.7,514.3c1.8,0,3.3,1.5,3.3,3.3c0,1.8-1.5,3.3-3.3,3.3c-1.8,0-3.3-1.5-3.3-3.3
				C176.4,515.7,177.9,514.3,179.7,514.3z"/>
		</g>
		<g>
			<g>
				<path class="st0" d="M179.9,531.6h3.5c0.1,0,0.2,0.1,0.2,0.2v9.1v16c0,0.1-0.1,0.2-0.2,0.3l-3.4,1.8c0,0,0,0,0,0L179.9,531.6z"
					/>
			</g>
			<g>
				<path class="st0" d="M179.4,558.9l-3.3-1.7c-0.1,0-0.2-0.2-0.2-0.3l0-0.6c0-0.1,0.1-0.2,0.2-0.3c0,0,1.4-0.7,1.4-1.6
					c0-0.9-1.4-1.6-1.4-1.6c-0.1,0-0.2-0.2-0.2-0.3v-0.3c0-0.1,0.1-0.2,0.2-0.3c0,0,1.4-0.7,1.4-1.6c0-0.9-1.4-1.6-1.4-1.6
					c-0.1,0-0.2-0.2-0.2-0.3l0-0.3c0-0.1,0.1-0.2,0.2-0.3c0,0,1.4-0.7,1.4-1.6c0-0.9-1.4-1.6-1.4-1.6c-0.1,0-0.2-0.2-0.2-0.3v-12.7
					c0-0.1,0.1-0.2,0.2-0.2h3.3V558.9z"/>
			</g>
		</g>
	</g>
	<g>
		<path class="st0" d="M167.1,523c0-5.6,3.7-10.4,8.8-12c-2.8,0-5.6,1.1-7.8,3.2c-4.3,4.3-4.3,11.3,0,15.6c0.8,0.8,1.7,1.4,2.6,1.9
			C168.5,529.5,167.1,526.4,167.1,523z"/>
	</g>
	<g>
		<path class="st0" d="M167.4,525.7L167.4,525.7c-0.1-0.1-0.3-0.1-0.3-0.1l-9,9c-0.1,0.1-0.1,0.2-0.1,0.3c0,0,0.5,1.5-0.2,2.1
			c-0.6,0.6-2.1,0.2-2.1,0.2c-0.1,0-0.2,0-0.3,0.1l-0.2,0.2c-0.1,0.1-0.1,0.2-0.1,0.3c0,0,0.5,1.5-0.2,2.1c-0.6,0.6-2.1,0.2-2.1,0.2
			c-0.1,0-0.2,0-0.3,0.1l-0.2,0.2c-0.1,0.1-0.1,0.2-0.1,0.3c0,0,0.5,1.5-0.2,2.1c-0.6,0.6-2.1,0.2-2.1,0.2c-0.1,0-0.2,0-0.3,0.1
			l-0.4,0.4c-0.1,0.1-0.1,0.2-0.1,0.3l1.1,3.6l18.3-18.3C168.1,527.9,167.7,526.8,167.4,525.7z"/>
	</g>
	<g>
		<path class="st0" d="M168.8,529.3l-18.3,18.3c0,0,0,0,0,0l3.7,1.2c0.1,0,0.2,0,0.3-0.1l11.3-11.3l5.2-5.2
			C170.2,531.4,169.4,530.4,168.8,529.3z"/>
	</g>
</g>
<g>
	<g>
		<g>
			<path class="st0" d="M243.1,538.9h2.5c0.1,0,0.1,0.1,0.1,0.1v6.7v11.8c0,0.1-0.1,0.2-0.1,0.2l-2.5,1.3c0,0,0,0,0,0V538.9z"/>
		</g>
		<g>
			<path class="st0" d="M242.8,558.9l-2.4-1.3c-0.1,0-0.1-0.1-0.1-0.2l0-0.4c0-0.1,0.1-0.2,0.1-0.2c0,0,1-0.5,1-1.2
				c0-0.6-1-1.2-1-1.2c-0.1,0-0.1-0.1-0.1-0.2v-0.2c0-0.1,0.1-0.2,0.1-0.2c0,0,1-0.5,1-1.2c0-0.6-1-1.2-1-1.2
				c-0.1,0-0.1-0.1-0.1-0.2l0-0.2c0-0.1,0.1-0.2,0.1-0.2c0,0,1-0.5,1-1.2c0-0.6-1-1.2-1-1.2c-0.1,0-0.1-0.1-0.1-0.2V539
				c0-0.1,0.1-0.1,0.1-0.1h2.4V558.9z"/>
		</g>
	</g>
	<g>
		<path class="st0" d="M234.1,534.5L234.1,534.5c-0.1-0.1-0.2-0.1-0.2-0.1l-6.6,6.6c-0.1,0.1-0.1,0.1-0.1,0.2c0,0,0.3,1.1-0.1,1.6
			c-0.5,0.5-1.5,0.1-1.5,0.1c-0.1,0-0.2,0-0.2,0.1l-0.2,0.2c-0.1,0.1-0.1,0.1-0.1,0.2c0,0,0.3,1.1-0.1,1.6c-0.5,0.5-1.6,0.1-1.6,0.1
			c-0.1,0-0.2,0-0.2,0.1l-0.2,0.2c-0.1,0-0.1,0.1-0.1,0.2c0,0,0.3,1.1-0.1,1.5c-0.5,0.5-1.6,0.1-1.6,0.1c-0.1,0-0.2,0-0.2,0.1
			l-0.3,0.3c-0.1,0.1-0.1,0.1-0.1,0.2l0.8,2.6l13.4-13.4C234.6,536.1,234.3,535.3,234.1,534.5z"/>
	</g>
	<g>
		<path class="st0" d="M235.1,537.2l-13.4,13.4c0,0,0,0,0,0l2.7,0.9c0.1,0,0.2,0,0.2-0.1l8.3-8.3l3.8-3.8
			C236.1,538.7,235.6,538,235.1,537.2z"/>
	</g>
	<g>
		<g>
			<path class="st0" d="M252.1,532.5c0-4.1-2.7-7.6-6.4-8.8c2.1,0,4.1,0.8,5.7,2.4c3.2,3.2,3.2,8.3,0,11.5c-0.6,0.6-1.2,1-1.9,1.4
				C251.1,537.3,252.1,535,252.1,532.5z"/>
		</g>
		<g>
			<path class="st0" d="M251.9,534.5L251.9,534.5c0.1-0.1,0.2-0.1,0.2-0.1l6.6,6.6c0.1,0.1,0.1,0.1,0.1,0.2c0,0-0.3,1.1,0.1,1.6
				c0.5,0.5,1.6,0.1,1.6,0.1c0.1,0,0.2,0,0.2,0.1l0.2,0.2c0.1,0.1,0.1,0.1,0.1,0.2c0,0-0.3,1.1,0.1,1.6c0.5,0.5,1.6,0.1,1.6,0.1
				c0.1,0,0.2,0,0.2,0.1l0.2,0.2c0.1,0,0.1,0.1,0.1,0.2c0,0-0.3,1.1,0.1,1.5c0.5,0.5,1.6,0.1,1.6,0.1c0.1,0,0.2,0,0.2,0.1l0.3,0.3
				c0.1,0.1,0.1,0.1,0.1,0.2l-0.8,2.6L251,536.9C251.4,536.1,251.7,535.3,251.9,534.5z"/>
		</g>
		<g>
			<path class="st0" d="M250.9,537.2l13.4,13.4c0,0,0,0,0,0l-2.7,0.9c-0.1,0-0.2,0-0.2-0.1l-8.3-8.3l-3.8-3.8
				C249.9,538.7,250.4,538,250.9,537.2z"/>
		</g>
	</g>
	<g>
		<path class="st0" d="M243,511c-6.6,0-12,4.3-12,9.5c0,5.2,5.4,9.5,12,9.5c0.5,0,1.1,0,1.6-0.1c0.3-0.4,0.5-0.8,0.5-1.3
			c0-0.6-0.3-1.2-0.7-1.6c-0.4,0.1-0.9,0.1-1.3,0.1c-5,0-9.1-2.9-9.1-6.6c0-3.6,4.1-6.6,9.1-6.6c5,0,9.1,2.9,9.1,6.6
			c0,1.5-0.7,3-2,4.1c0.6,0.3,1.1,0.8,1.6,1.2c0.2,0.2,0.4,0.4,0.6,0.7c1.7-1.6,2.7-3.7,2.7-6C255,515.3,249.6,511,243,511z"/>
	</g>
	<g>
		<g>
			<path class="st0" d="M235,528c-0.5-0.3-0.9-0.6-1.3-1c-2.3,3.2-2.1,7.7,0.8,10.5c0.6,0.6,1.2,1,1.9,1.4c-1.6-1.7-2.6-3.9-2.6-6.5
				C233.9,530.9,234.3,529.4,235,528z"/>
		</g>
		<g>
			<path class="st0" d="M236.6,524.6c0.3,0.2,0.6,0.4,0.9,0.6c0.9-0.7,1.8-1.2,2.9-1.5C239,523.7,237.7,524,236.6,524.6z"/>
		</g>
	</g>
	<g>
		<path class="st0" d="M243,524.4c-1.7,0-3.2,0.5-4.5,1.4c0.9,0.4,1.9,0.7,3,0.8c0.4-0.3,0.9-0.5,1.5-0.5c0.5,0,1.1,0.2,1.5,0.5h0
			l0.1,0.1c0.2,0.1,0.3,0.3,0.4,0.4c0,0,0,0,0,0c0.1,0.1,0.2,0.3,0.3,0.4c0,0,0,0,0,0c0.1,0.1,0.1,0.3,0.2,0.4c0,0,0,0,0,0.1
			c0,0.2,0.1,0.3,0.1,0.5c0,0.2,0,0.3,0,0.5c0,0.1,0,0.1-0.1,0.2c0,0.1,0,0.1-0.1,0.2c0,0.1-0.1,0.2-0.1,0.3c0,0,0,0.1,0,0.1
			c-0.1,0.1-0.1,0.2-0.2,0.3c0,0,0,0,0,0l-0.1,0.1c-0.4,0.5-1.1,0.8-1.8,0.8c-0.7,0-1.3-0.3-1.8-0.8c-2-0.2-3.8-0.8-5.3-1.7
			c-0.7,1.2-1,2.5-1,4c0,4.5,3.6,8.1,8.1,8.1c4.5,0,8.1-3.6,8.1-8.1C251.1,528.1,247.5,524.4,243,524.4z"/>
	</g>
</g>
<g>
	<path class="st1" d="M608,511c-13.3,0-24,10.7-24,24c0,13.3,10.7,24,24,24c13.3,0,24-10.7,24-24C632,521.7,621.3,511,608,511z
		 M609.2,513.5c0.2,0,0.4-0.1,0.5-0.1c1,0.2,2.1,0.3,3.1,0.8c0.4,0.2,0.7,0.4,1.1,0.6c0.3,0.2,0.6,0.2,0.9,0.4
		c0.4,0.2,0.5,0.5,0.2,0.9c0.2,0.2,0.4,0.3,0.5,0.5c-0.2,0.5-0.1,0.8,0.2,1.2c0.2,0.2,0.4,0.4,0.6,0.7c-0.7,0.3-1.2,0.1-1.7-0.2
		c-0.4-0.2-0.7-0.4-1-0.7c-0.3-0.2-0.5-0.6-0.7-0.9c-0.1-0.1-0.2-0.2-0.3-0.3c-0.5-0.3-1-0.6-1.5-0.8c-0.4-0.2-0.8-0.2-1.3-0.2
		c-0.6,0-0.9-0.2-0.9-0.8c0-0.2-0.1-0.3-0.2-0.6c0.2,0,0.4-0.1,0.6-0.1C609.4,513.8,609.3,513.7,609.2,513.5z M614.1,535.8
		c-0.6,0.4-0.9-0.5-1.4-0.4c0.4-0.2,0.4-1,1.1-0.8c0.3,0.1,0.7,0.1,0.9,0.5c-0.3,0.1-0.5,0.1-0.8,0.2
		C613.9,535.5,614,535.7,614.1,535.8z M612.4,518.5c0.1,0.1-0.1,0.3-0.2,0.6c-0.7-0.2-1.4-0.4-2.2-0.6c0.2-0.2,0.4-0.5,0.7-0.8
		c-0.3,0-0.6-0.1-0.9-0.1c-0.3-0.8-1.2-0.3-1.9-0.5c-0.2-0.1-0.4-0.2-0.4-0.3c0-0.1,0.1-0.4,0.2-0.4c0.3-0.1,0.6-0.2,0.9-0.1
		c0.5,0.1,1,0.3,1.5,0.4c0.7,0.2,1.3,0.5,2,0.8c0.2,0.1,0.2,0.4,0.4,0.6c-0.3,0-0.5,0-0.7,0C612,518.2,612.3,518.3,612.4,518.5z
		 M608.3,513.9c0.4-0.1,0.5,0.1,0.5,0.5c-0.1,0.9-0.4,1.1-1.2,1c0.1-0.3,0.1-0.5,0.2-0.8c-0.2-0.1-0.3-0.2-0.5-0.2c0,0,0-0.1,0-0.1
		C607.6,514.2,607.9,514,608.3,513.9z M624.6,543.9c-0.4,0.9-0.8,1.7-1.2,2.5c-0.2,0.5-0.4,0.9-0.6,1.4c-0.4,1-1.3,1.3-2.1,2
		c-0.2,0.1-0.3,0.3-0.4,0.5c-0.7,1.3-1.8,2.1-2.8,3c-0.1,0.1-0.3,0.1-0.4,0.2c-0.3,0.2-0.5,0.4-0.8,0.6c-0.1,0.1-0.2,0.2-0.3,0.3
		c-0.7,0.4-1.5,0.8-2.2,1.2c-0.5,0.3-1,0.7-1.4,1.1c-0.2,0.2-0.4,0.4-0.7,0.5c-0.3,0.2-0.6,0.2-0.7,0.6c0,0.1-0.3,0.2-0.5,0.2
		c-0.3,0-0.5,0-1-0.1c0.3-0.5,0.6-0.8,0.9-1.2c0.2-0.3,0.5-0.4,0.5-0.9c0-0.3,0.3-0.6,0.5-0.9c1.2-1.4,1.9-3.1,2.3-4.9
		c0.1-0.3,0-0.5-0.3-0.6c0,0-0.1,0-0.1,0c-1.1-0.4-1.9-1-2.2-2.2c-0.1-0.4-0.6-0.8-1-1.2c-0.5-0.5-0.5-0.8-0.1-1.3
		c0.1-0.1,0.1-0.3,0.1-0.4c-0.4-0.6,0-1.1,0.2-1.5c0.1-0.2,0.3-0.4,0.5-0.6c0.8-0.6,0.6-1.7,0.2-2.4c-0.2-0.3-0.5-0.4-0.7,0
		c-0.2,0.4-0.4,0.4-0.8,0.2c-0.8-0.4-1.6-0.7-2.1-1.5c-0.3-0.5-0.8-0.7-1.3-0.7c-0.7,0-1.1-0.4-1.5-0.9c-0.3-0.3-0.5-0.3-0.8-0.1
		c-0.4,0.2-0.7,0.1-1-0.1c-0.8-0.5-1.6-1-2.4-1.4c-0.3-0.2-0.3-0.4-0.4-0.7c0-0.4-0.1-0.7-0.3-1c-0.6-1-1.3-1.9-1.9-2.9
		c-0.1-0.2-0.2-0.5-0.3-0.7c-0.1,0-0.1,0-0.2,0.1c0.4,1.1,0.9,2.2,1.3,3.4c0,0-0.1,0.1-0.1,0.1c-0.2-0.2-0.4-0.3-0.5-0.5
		c-0.3-0.4-0.5-0.9-0.7-1.3c-0.2-0.4-0.2-0.8-0.3-1.2c-0.2-0.7-0.5-1.3-0.9-2c-0.7-0.9-0.9-2-0.4-3.2c0.2-0.5,0.5-1.1,0.7-1.6
		c0.1-0.3,0.2-0.6,0.7-0.5c-0.2-0.3-0.4-0.6-0.5-0.9c-0.1-0.2-0.2-0.5-0.1-0.7c0.2-1-0.2-1.9-0.5-2.7c-0.1-0.3-0.5-0.9-1.1-0.8
		c-0.5-0.6-0.7,0.1-1.1,0.2c-0.6,0.2-1.2,0.3-1.8,0.4c-0.1,0-0.2-0.1-0.3-0.2c0.6-0.1,1.1-0.3,1.7-0.5c-0.1-0.1-0.2-0.2-0.2-0.3
		c0.2-0.3,0.3-0.6,0.5-0.9c0.2-0.2,0.5-0.4,0.7-0.4c0.5,0.1,0.6-0.1,0.6-0.6c0-0.1,0-0.1,0.1-0.2c0.5,0.3,0.8,0.1,1.1-0.4
		c0.2-0.3,1.2-0.3,1.5-0.1c0.3,0.3,0.7,0.6,0.9,0.9c0.2,0.2,0.3,0.3,0.6,0.2c0.9-0.2,1.7,0.2,2.4,0.8c0.2,0.2,0.5,0.2,0.8,0.3
		c0.6-0.6,1.3,0.2,2-0.2c0,0,0-0.1-0.1-0.1c-0.1-0.2-0.4-0.3-0.4-0.5c-0.1-0.8,0.1-0.9,0.9-0.7c0.3,0.1,0.7,0,0.9,0.5
		c0.1,0.2,0.5,0.4,0.7,0.6c0.1,0.1,0.2,0.3,0.2,0.4c0,0.1-0.1,0.4-0.2,0.4c-0.7,0.3-1,0.9-1.5,1.4c-0.5,0.5-0.2,1.3,0.5,1.5
		c0.5,0.1,1,0.3,1.5,0.4c0.4,0.1,0.6,0.3,0.8,0.7c0.2,0.6,0.4,0.8,1,0.6c-0.1-0.2-0.1-0.3-0.2-0.4c-0.1-0.3-0.3-0.6,0.1-1
		c0.2-0.2,0.1-0.4-0.1-0.6c-0.2-0.2-0.4-0.5-0.5-0.7c-0.1-0.6,0.1-0.8,0.7-0.8c0.4,0,0.9,0.1,1.2,0.5c0.1,0.2,0.4,0.3,0.5,0.3
		c0.1,0,0.2-0.3,0.4-0.6c0.3,0.2,0.7,0.5,1,0.7c0.4,0.3,0.8,0.5,1.3,0.8c0.4,0.2,0.8,0.3,0.8,0.8c0,0.5-0.4,0.8-1,0.8
		c-0.8,0.1-1.3,0.6-1.6,1.4c0.2-0.2,0.4-0.4,0.6-0.6c0.4-0.4,0.7-0.4,1,0.1c0.2,0.4,0.5,0.7,1,0.6c0,0,0,0.1,0,0.1
		c-0.2,0.3-0.5,0.6-0.7,0.9c-0.1-0.2-0.2-0.4-0.3-0.6c-0.4,0.4-1,0.5-0.9,1.3c0,0.1-0.1,0.3-0.2,0.3c-0.4,0.2-0.6,0.6-0.7,1.1
		c-0.1,0.2-0.2,0.3-0.3,0.5c0.5,0.8-0.1,1.3-0.7,1.8c-0.1,0.1-0.2,0.2-0.3,0.3c-0.3,0.3-0.5,0.7-0.2,1.1c0.2,0.4,0.3,0.8,0.4,1.3
		c0,0.2,0,0.4,0,0.6c-0.1,0-0.1,0.1-0.2,0.1c-0.3-0.4-0.7-0.7-0.9-1.1c-0.2-0.5-0.5-0.7-1-0.7c-0.2,0-0.5,0-0.7,0
		c-0.4,0-0.8-0.1-0.7,0.6c-0.5-0.1-0.9-0.2-1.4-0.2c-0.6-0.1-1.3,0.3-1.5,0.9c-0.1,0.3-0.2,0.6-0.3,0.9c-0.4,1,0.2,1.8,0.8,2.5
		c0.3,0.4,1.5,0.2,1.8-0.2c0.1-0.1,0.1-0.2,0.2-0.3c0.4-0.7,0.5-0.8,1.5-0.6c-0.1,0.3-0.2,0.7-0.4,1c-0.5,1.2-0.4,1.3,0.9,1.3
		c1,0,1,0.1,1,1c0,0.2,0,0.4,0,0.5c0,0.8,0.7,1.2,1.4,0.9c0.3-0.2,0.6-0.1,0.9,0c0.3,0.1,0.5,0,0.7-0.2c0.4-0.4,0.8-0.8,1.3-1.2
		c0.1-0.1,0.4-0.2,0.5-0.1c0.5,0.4,1.2,0.4,1.7,0.3c1.1-0.2,2.1,0.1,3,0.8c0.5,0.3,1,0.5,1.5,0.3c0.3-0.1,0.5,0.1,0.7,0.3
		c0.1,0.1,0.1,0.3,0.3,0.4c0.4,0.5,0.6,1,0.3,1.5c0.9,0,1.7-0.1,2.5,0c0.4,0,0.8,0.2,1.1,0.4c0.1,0,0.2,0.3,0.1,0.4
		C624.9,542.8,624.8,543.4,624.6,543.9z M612.6,534.6c-0.3,0.5-1.1,0.6-1.4,0.2c-0.5-0.5-1.1-0.5-1.8-0.6c-0.4,0-0.7,0-1.1,0
		c0.4-0.3,0.9-0.6,1.4-0.5c0.7,0.1,1.4,0.1,2,0.6C611.9,534.5,612.2,534.5,612.6,534.6z"/>
</g>
<g>
	<g>
		<path class="st0" d="M558.9,529.1l-17.8-10.3c-0.2-0.1-0.3,0-0.3,0.2v5.3c-9.8,0.3-17.9,7.2-20.1,16.3c3.9-4.1,9.3-6.7,15.4-6.7
			c1.6,0,3.2,0.2,4.7,0.5v5c0,0.2,0.2,0.3,0.3,0.2l17.8-10.3C559,529.4,559,529.2,558.9,529.1z"/>
	</g>
	<g>
		<path class="st0" d="M544.2,540.1v6.7c0,0.3-0.2,0.5-0.5,0.5h-28.3c-0.3,0-0.5-0.2-0.5-0.5v-16.3c0-0.3,0.2-0.5,0.5-0.5h9
			c1.4-1.5,3-2.8,4.7-3.9h-13.8c-2.4,0-4.4,2-4.4,4.4v16.3c0,2.4,2,4.4,4.4,4.4h28.3c2.4,0,4.4-2,4.4-4.4v-9L544.2,540.1z"/>
	</g>
</g>
<g>
	<path class="st0" d="M328.4,543.7c-1.7,0-3.2,0.6-4.5,1.5l-12.9-8c0.2-0.6,0.2-1.2,0.2-1.9c0-0.9-0.2-1.8-0.5-2.7l13-8
		c1.3,1,2.9,1.6,4.7,1.6c4.2,0,7.6-3.4,7.6-7.6c0-4.2-3.4-7.6-7.6-7.6c-4.2,0-7.6,3.4-7.6,7.6c0,0.8,0.1,1.6,0.4,2.3l-13.1,8.1
		c-1.2-0.9-2.8-1.4-4.4-1.4c-4.2,0-7.6,3.4-7.6,7.6c0,4.2,3.4,7.6,7.6,7.6c1.9,0,3.7-0.7,5-1.9l12.6,7.8c-0.3,0.8-0.5,1.7-0.5,2.6
		c0,4.2,3.4,7.6,7.6,7.6c4.2,0,7.6-3.4,7.6-7.6S332.6,543.7,328.4,543.7z"/>
</g>
<g>
	<g>
		<g>
			
				<ellipse transform="matrix(0.9087 -0.4175 0.4175 0.9087 -175.4741 235.6989)" class="st0" cx="451" cy="518.9" rx="6.7" ry="6.7"/>
		</g>
	</g>
	<g>
		<g>
			
				<ellipse transform="matrix(0.9087 -0.4175 0.4175 0.9087 -189.2907 236.7816)" class="st0" cx="446.6" cy="551.1" rx="6.7" ry="6.7"/>
		</g>
	</g>
	<g>
		
			<ellipse transform="matrix(0.9087 -0.4174 0.4174 0.9087 -179.9996 248.9678)" class="st0" cx="479.3" cy="536" rx="6.7" ry="6.7"/>
	</g>
	<g>
		<path class="st0" d="M442.7,542.7c-2.1-5.7-1-12,2.4-16.6c-0.9-0.8-1.7-1.8-2.3-2.9c-4.9,5.9-6.3,14.3-3.1,21.7
			C440.5,544,441.5,543.2,442.7,542.7z"/>
	</g>
	<g>
		<path class="st0" d="M474.9,544.2c-1.7,3.6-4.6,6.6-8.5,8.4c-3.6,1.6-7.4,2-11,1.2c-0.4,1.2-1,2.3-1.8,3.3c4.6,1.2,9.6,1,14.3-1.2
			c4.8-2.2,8.4-6.1,10.4-10.6C477.2,545.1,476,544.7,474.9,544.2z"/>
	</g>
	<g>
		<path class="st0" d="M474.5,528.1c0.3-0.2,0.6-0.3,0.9-0.5c0.8-0.4,1.6-0.6,2.5-0.7c-3.6-7.1-10.8-11.3-18.3-11.4
			c0.5,1.2,0.7,2.4,0.7,3.6C466.1,519.5,471.5,522.8,474.5,528.1z"/>
	</g>
</g>
<g>
	<g>
		<path class="st0" d="M401.4,543.7c-1.7,0-3.2,0.5-4.5,1.5l-12.9-8c0.2-0.6,0.2-1.2,0.2-1.9c0-0.9-0.2-1.8-0.5-2.7l13-8
			c1.3,1,2.9,1.6,4.7,1.6c4.2,0,7.6-3.4,7.6-7.6s-3.4-7.6-7.6-7.6c-4.2,0-7.6,3.4-7.6,7.6c0,0.8,0.1,1.6,0.4,2.3l-13.1,8.1
			c-1.2-0.9-2.8-1.4-4.4-1.4c-4.2,0-7.6,3.4-7.6,7.6s3.4,7.6,7.6,7.6c1.9,0,3.7-0.7,5-1.9l12.6,7.8c-0.3,0.8-0.5,1.7-0.5,2.6
			c0,4.2,3.4,7.6,7.6,7.6c4.2,0,7.6-3.4,7.6-7.6C409,547.2,405.6,543.7,401.4,543.7z M401.4,515c2,0,3.6,1.6,3.6,3.6
			s-1.6,3.6-3.6,3.6s-3.6-1.6-3.6-3.6S399.4,515,401.4,515z M376.6,538.9c-2,0-3.6-1.6-3.6-3.6s1.6-3.6,3.6-3.6s3.6,1.6,3.6,3.6
			S378.6,538.9,376.6,538.9z M401.4,555c-2,0-3.6-1.6-3.6-3.6s1.6-3.6,3.6-3.6s3.6,1.6,3.6,3.6S403.4,555,401.4,555z"/>
	</g>
</g>
</svg>
